<?xml version="1.0" encoding="utf-8" standalone="no"?>
<!DOCTYPE svg PUBLIC "-//W3C//DTD SVG 1.1//EN"
  "http://www.w3.org/Graphics/SVG/1.1/DTD/svg11.dtd">
<svg xmlns:xlink="http://www.w3.org/1999/xlink" width="529.129688pt" height="491.665875pt" viewBox="0 0 529.129688 491.665875" xmlns="http://www.w3.org/2000/svg" version="1.1">
 <metadata>
  <rdf:RDF xmlns:dc="http://purl.org/dc/elements/1.1/" xmlns:cc="http://creativecommons.org/ns#" xmlns:rdf="http://www.w3.org/1999/02/22-rdf-syntax-ns#">
   <cc:Work>
    <dc:type rdf:resource="http://purl.org/dc/dcmitype/StillImage"/>
    <dc:format>image/svg+xml</dc:format>
    <dc:creator>
     <cc:Agent>
      <dc:title>lda.chat thesis evaluation</dc:title>
     </cc:Agent>
    </dc:creator>
   </cc:Work>
  </rdf:RDF>
 </metadata>
 <defs>
  <style type="text/css">*{stroke-linejoin: round; stroke-linecap: butt}</style>
 </defs>
 <g id="figure_1">
  <g id="patch_1">
   <path d="M 0 491.665875
L 529.129688 491.665875
L 529.129688 0
L 0 0
z
" style="fill: #ffffff"/>
  </g>
  <g id="axes_1">
   <g id="patch_2">
    <path d="M 52.697422 249.748746
L 520.489688 249.748746
L 520.489688 90.243047
L 52.697422 90.243047
z
" style="fill: #f3f6f7"/>
   </g>
   <g id="matplotlib.axis_1">
    <g id="xtick_1">
     <g id="line2d_1">
      <defs>
       <path id="m2a50e1e0c6" d="M 0 0
L 0 3.5
" style="stroke: #000000; stroke-width: 0.8"/>
      </defs>
      <g>
       <use xlink:href="#m2a50e1e0c6" x="121.877968" y="249.748746" style="stroke: #000000; stroke-width: 0.8"/>
      </g>
     </g>
    </g>
    <g id="xtick_2">
     <g id="line2d_2">
      <g>
       <use xlink:href="#m2a50e1e0c6" x="286.593555" y="249.748746" style="stroke: #000000; stroke-width: 0.8"/>
      </g>
     </g>
    </g>
    <g id="xtick_3">
     <g id="line2d_3">
      <g>
       <use xlink:href="#m2a50e1e0c6" x="451.309141" y="249.748746" style="stroke: #000000; stroke-width: 0.8"/>
      </g>
     </g>
    </g>
   </g>
   <g id="matplotlib.axis_2">
    <g id="ytick_1">
     <g id="line2d_4">
      <path d="M 52.697422 229.033722
L 520.489688 229.033722
" clip-path="url(#p7f1770445d)" style="fill: none; stroke: #c9d1d5; stroke-width: 0.6; stroke-linecap: square"/>
     </g>
     <g id="line2d_5">
      <defs>
       <path id="m9c62cfc23c" d="M 0 0
L -3.5 0
" style="stroke: #000000; stroke-width: 0.8"/>
      </defs>
      <g>
       <use xlink:href="#m9c62cfc23c" x="52.697422" y="229.033722" style="stroke: #000000; stroke-width: 0.8"/>
      </g>
     </g>
     <g id="text_1">
      <!-- 5 -->
      <g transform="translate(39.971172 232.452668) scale(0.09 -0.09)">
       <defs>
        <path id="DejaVuSans-18" d="M 691 4666
L 3169 4666
L 3169 4134
L 1269 4134
L 1269 2991
Q 1406 3038 1543 3061
Q 1681 3084 1819 3084
Q 2600 3084 3056 2656
Q 3513 2228 3513 1497
Q 3513 744 3044 326
Q 2575 -91 1722 -91
Q 1428 -91 1123 -41
Q 819 9 494 109
L 494 744
Q 775 591 1075 516
Q 1375 441 1709 441
Q 2250 441 2565 725
Q 2881 1009 2881 1497
Q 2881 1984 2565 2268
Q 2250 2553 1709 2553
Q 1456 2553 1204 2497
Q 953 2441 691 2322
L 691 4666
z
" transform="scale(0.015625)"/>
       </defs>
       <use xlink:href="#DejaVuSans-18"/>
      </g>
     </g>
    </g>
    <g id="ytick_2">
     <g id="line2d_6">
      <path d="M 52.697422 200.088858
L 520.489688 200.088858
" clip-path="url(#p7f1770445d)" style="fill: none; stroke: #c9d1d5; stroke-width: 0.6; stroke-linecap: square"/>
     </g>
     <g id="line2d_7">
      <g>
       <use xlink:href="#m9c62cfc23c" x="52.697422" y="200.088858" style="stroke: #000000; stroke-width: 0.8"/>
      </g>
     </g>
     <g id="text_2">
      <!-- 10 -->
      <g transform="translate(34.244922 203.507804) scale(0.09 -0.09)">
       <defs>
        <path id="DejaVuSans-14" d="M 794 531
L 1825 531
L 1825 4091
L 703 3866
L 703 4441
L 1819 4666
L 2450 4666
L 2450 531
L 3481 531
L 3481 0
L 794 0
L 794 531
z
" transform="scale(0.015625)"/>
        <path id="DejaVuSans-13" d="M 2034 4250
Q 1547 4250 1301 3770
Q 1056 3291 1056 2328
Q 1056 1369 1301 889
Q 1547 409 2034 409
Q 2525 409 2770 889
Q 3016 1369 3016 2328
Q 3016 3291 2770 3770
Q 2525 4250 2034 4250
z
M 2034 4750
Q 2819 4750 3233 4129
Q 3647 3509 3647 2328
Q 3647 1150 3233 529
Q 2819 -91 2034 -91
Q 1250 -91 836 529
Q 422 1150 422 2328
Q 422 3509 836 4129
Q 1250 4750 2034 4750
z
" transform="scale(0.015625)"/>
       </defs>
       <use xlink:href="#DejaVuSans-14"/>
       <use xlink:href="#DejaVuSans-13" transform="translate(63.625 0)"/>
      </g>
     </g>
    </g>
    <g id="ytick_3">
     <g id="line2d_8">
      <path d="M 52.697422 171.143995
L 520.489688 171.143995
" clip-path="url(#p7f1770445d)" style="fill: none; stroke: #c9d1d5; stroke-width: 0.6; stroke-linecap: square"/>
     </g>
     <g id="line2d_9">
      <g>
       <use xlink:href="#m9c62cfc23c" x="52.697422" y="171.143995" style="stroke: #000000; stroke-width: 0.8"/>
      </g>
     </g>
     <g id="text_3">
      <!-- 15 -->
      <g transform="translate(34.244922 174.56294) scale(0.09 -0.09)">
       <use xlink:href="#DejaVuSans-14"/>
       <use xlink:href="#DejaVuSans-18" transform="translate(63.625 0)"/>
      </g>
     </g>
    </g>
    <g id="ytick_4">
     <g id="line2d_10">
      <path d="M 52.697422 142.199131
L 520.489688 142.199131
" clip-path="url(#p7f1770445d)" style="fill: none; stroke: #c9d1d5; stroke-width: 0.6; stroke-linecap: square"/>
     </g>
     <g id="line2d_11">
      <g>
       <use xlink:href="#m9c62cfc23c" x="52.697422" y="142.199131" style="stroke: #000000; stroke-width: 0.8"/>
      </g>
     </g>
     <g id="text_4">
      <!-- 20 -->
      <g transform="translate(34.244922 145.618076) scale(0.09 -0.09)">
       <defs>
        <path id="DejaVuSans-15" d="M 1228 531
L 3431 531
L 3431 0
L 469 0
L 469 531
Q 828 903 1448 1529
Q 2069 2156 2228 2338
Q 2531 2678 2651 2914
Q 2772 3150 2772 3378
Q 2772 3750 2511 3984
Q 2250 4219 1831 4219
Q 1534 4219 1204 4116
Q 875 4013 500 3803
L 500 4441
Q 881 4594 1212 4672
Q 1544 4750 1819 4750
Q 2544 4750 2975 4387
Q 3406 4025 3406 3419
Q 3406 3131 3298 2873
Q 3191 2616 2906 2266
Q 2828 2175 2409 1742
Q 1991 1309 1228 531
z
" transform="scale(0.015625)"/>
       </defs>
       <use xlink:href="#DejaVuSans-15"/>
       <use xlink:href="#DejaVuSans-13" transform="translate(63.625 0)"/>
      </g>
     </g>
    </g>
    <g id="ytick_5">
     <g id="line2d_12">
      <path d="M 52.697422 113.254267
L 520.489688 113.254267
" clip-path="url(#p7f1770445d)" style="fill: none; stroke: #c9d1d5; stroke-width: 0.6; stroke-linecap: square"/>
     </g>
     <g id="line2d_13">
      <g>
       <use xlink:href="#m9c62cfc23c" x="52.697422" y="113.254267" style="stroke: #000000; stroke-width: 0.8"/>
      </g>
     </g>
     <g id="text_5">
      <!-- 25 -->
      <g transform="translate(34.244922 116.673212) scale(0.09 -0.09)">
       <use xlink:href="#DejaVuSans-15"/>
       <use xlink:href="#DejaVuSans-18" transform="translate(63.625 0)"/>
      </g>
     </g>
    </g>
    <g id="text_6">
     <!-- Browser click -->
     <g style="fill: #28323c" transform="translate(16.379473 199.715584) rotate(-90) scale(0.09 -0.09)">
      <defs>
       <path id="DejaVuSans-25" d="M 1259 2228
L 1259 519
L 2272 519
Q 2781 519 3026 730
Q 3272 941 3272 1375
Q 3272 1813 3026 2020
Q 2781 2228 2272 2228
L 1259 2228
z
M 1259 4147
L 1259 2741
L 2194 2741
Q 2656 2741 2882 2914
Q 3109 3088 3109 3444
Q 3109 3797 2882 3972
Q 2656 4147 2194 4147
L 1259 4147
z
M 628 4666
L 2241 4666
Q 2963 4666 3353 4366
Q 3744 4066 3744 3513
Q 3744 3084 3544 2831
Q 3344 2578 2956 2516
Q 3422 2416 3680 2098
Q 3938 1781 3938 1306
Q 3938 681 3513 340
Q 3088 0 2303 0
L 628 0
L 628 4666
z
" transform="scale(0.015625)"/>
       <path id="DejaVuSans-55" d="M 2631 2963
Q 2534 3019 2420 3045
Q 2306 3072 2169 3072
Q 1681 3072 1420 2755
Q 1159 2438 1159 1844
L 1159 0
L 581 0
L 581 3500
L 1159 3500
L 1159 2956
Q 1341 3275 1631 3429
Q 1922 3584 2338 3584
Q 2397 3584 2469 3576
Q 2541 3569 2628 3553
L 2631 2963
z
" transform="scale(0.015625)"/>
       <path id="DejaVuSans-52" d="M 1959 3097
Q 1497 3097 1228 2736
Q 959 2375 959 1747
Q 959 1119 1226 758
Q 1494 397 1959 397
Q 2419 397 2687 759
Q 2956 1122 2956 1747
Q 2956 2369 2687 2733
Q 2419 3097 1959 3097
z
M 1959 3584
Q 2709 3584 3137 3096
Q 3566 2609 3566 1747
Q 3566 888 3137 398
Q 2709 -91 1959 -91
Q 1206 -91 779 398
Q 353 888 353 1747
Q 353 2609 779 3096
Q 1206 3584 1959 3584
z
" transform="scale(0.015625)"/>
       <path id="DejaVuSans-5a" d="M 269 3500
L 844 3500
L 1563 769
L 2278 3500
L 2956 3500
L 3675 769
L 4391 3500
L 4966 3500
L 4050 0
L 3372 0
L 2619 2869
L 1863 0
L 1184 0
L 269 3500
z
" transform="scale(0.015625)"/>
       <path id="DejaVuSans-56" d="M 2834 3397
L 2834 2853
Q 2591 2978 2328 3040
Q 2066 3103 1784 3103
Q 1356 3103 1142 2972
Q 928 2841 928 2578
Q 928 2378 1081 2264
Q 1234 2150 1697 2047
L 1894 2003
Q 2506 1872 2764 1633
Q 3022 1394 3022 966
Q 3022 478 2636 193
Q 2250 -91 1575 -91
Q 1294 -91 989 -36
Q 684 19 347 128
L 347 722
Q 666 556 975 473
Q 1284 391 1588 391
Q 1994 391 2212 530
Q 2431 669 2431 922
Q 2431 1156 2273 1281
Q 2116 1406 1581 1522
L 1381 1569
Q 847 1681 609 1914
Q 372 2147 372 2553
Q 372 3047 722 3315
Q 1072 3584 1716 3584
Q 2034 3584 2315 3537
Q 2597 3491 2834 3397
z
" transform="scale(0.015625)"/>
       <path id="DejaVuSans-48" d="M 3597 1894
L 3597 1613
L 953 1613
Q 991 1019 1311 708
Q 1631 397 2203 397
Q 2534 397 2845 478
Q 3156 559 3463 722
L 3463 178
Q 3153 47 2828 -22
Q 2503 -91 2169 -91
Q 1331 -91 842 396
Q 353 884 353 1716
Q 353 2575 817 3079
Q 1281 3584 2069 3584
Q 2775 3584 3186 3129
Q 3597 2675 3597 1894
z
M 3022 2063
Q 3016 2534 2758 2815
Q 2500 3097 2075 3097
Q 1594 3097 1305 2825
Q 1016 2553 972 2059
L 3022 2063
z
" transform="scale(0.015625)"/>
       <path id="DejaVuSans-3" transform="scale(0.015625)"/>
       <path id="DejaVuSans-46" d="M 3122 3366
L 3122 2828
Q 2878 2963 2633 3030
Q 2388 3097 2138 3097
Q 1578 3097 1268 2742
Q 959 2388 959 1747
Q 959 1106 1268 751
Q 1578 397 2138 397
Q 2388 397 2633 464
Q 2878 531 3122 666
L 3122 134
Q 2881 22 2623 -34
Q 2366 -91 2075 -91
Q 1284 -91 818 406
Q 353 903 353 1747
Q 353 2603 823 3093
Q 1294 3584 2113 3584
Q 2378 3584 2631 3529
Q 2884 3475 3122 3366
z
" transform="scale(0.015625)"/>
       <path id="DejaVuSans-4f" d="M 603 4863
L 1178 4863
L 1178 0
L 603 0
L 603 4863
z
" transform="scale(0.015625)"/>
       <path id="DejaVuSans-4c" d="M 603 3500
L 1178 3500
L 1178 0
L 603 0
L 603 3500
z
M 603 4863
L 1178 4863
L 1178 4134
L 603 4134
L 603 4863
z
" transform="scale(0.015625)"/>
       <path id="DejaVuSans-4e" d="M 581 4863
L 1159 4863
L 1159 1991
L 2875 3500
L 3609 3500
L 1753 1863
L 3688 0
L 2938 0
L 1159 1709
L 1159 0
L 581 0
L 581 4863
z
" transform="scale(0.015625)"/>
      </defs>
      <use xlink:href="#DejaVuSans-25"/>
      <use xlink:href="#DejaVuSans-55" transform="translate(68.609375 0)"/>
      <use xlink:href="#DejaVuSans-52" transform="translate(107.515625 0)"/>
      <use xlink:href="#DejaVuSans-5a" transform="translate(168.703125 0)"/>
      <use xlink:href="#DejaVuSans-56" transform="translate(250.484375 0)"/>
      <use xlink:href="#DejaVuSans-48" transform="translate(302.578125 0)"/>
      <use xlink:href="#DejaVuSans-55" transform="translate(364.109375 0)"/>
      <use xlink:href="#DejaVuSans-3" transform="translate(405.21875 0)"/>
      <use xlink:href="#DejaVuSans-46" transform="translate(437 0)"/>
      <use xlink:href="#DejaVuSans-4f" transform="translate(491.984375 0)"/>
      <use xlink:href="#DejaVuSans-4c" transform="translate(519.765625 0)"/>
      <use xlink:href="#DejaVuSans-46" transform="translate(547.546875 0)"/>
      <use xlink:href="#DejaVuSans-4e" transform="translate(602.53125 0)"/>
     </g>
     <!-- Minutes -->
     <g style="fill: #28323c" transform="translate(27.181934 187.709725) rotate(-90) scale(0.09 -0.09)">
      <defs>
       <path id="DejaVuSans-30" d="M 628 4666
L 1569 4666
L 2759 1491
L 3956 4666
L 4897 4666
L 4897 0
L 4281 0
L 4281 4097
L 3078 897
L 2444 897
L 1241 4097
L 1241 0
L 628 0
L 628 4666
z
" transform="scale(0.015625)"/>
       <path id="DejaVuSans-51" d="M 3513 2113
L 3513 0
L 2938 0
L 2938 2094
Q 2938 2591 2744 2837
Q 2550 3084 2163 3084
Q 1697 3084 1428 2787
Q 1159 2491 1159 1978
L 1159 0
L 581 0
L 581 3500
L 1159 3500
L 1159 2956
Q 1366 3272 1645 3428
Q 1925 3584 2291 3584
Q 2894 3584 3203 3211
Q 3513 2838 3513 2113
z
" transform="scale(0.015625)"/>
       <path id="DejaVuSans-58" d="M 544 1381
L 544 3500
L 1119 3500
L 1119 1403
Q 1119 906 1312 657
Q 1506 409 1894 409
Q 2359 409 2629 706
Q 2900 1003 2900 1516
L 2900 3500
L 3475 3500
L 3475 0
L 2900 0
L 2900 538
Q 2691 219 2414 64
Q 2138 -91 1772 -91
Q 1169 -91 856 284
Q 544 659 544 1381
z
M 1991 3584
L 1991 3584
z
" transform="scale(0.015625)"/>
       <path id="DejaVuSans-57" d="M 1172 4494
L 1172 3500
L 2356 3500
L 2356 3053
L 1172 3053
L 1172 1153
Q 1172 725 1289 603
Q 1406 481 1766 481
L 2356 481
L 2356 0
L 1766 0
Q 1100 0 847 248
Q 594 497 594 1153
L 594 3053
L 172 3053
L 172 3500
L 594 3500
L 594 4494
L 1172 4494
z
" transform="scale(0.015625)"/>
      </defs>
      <use xlink:href="#DejaVuSans-30"/>
      <use xlink:href="#DejaVuSans-4c" transform="translate(86.28125 0)"/>
      <use xlink:href="#DejaVuSans-51" transform="translate(114.0625 0)"/>
      <use xlink:href="#DejaVuSans-58" transform="translate(177.4375 0)"/>
      <use xlink:href="#DejaVuSans-57" transform="translate(240.8125 0)"/>
      <use xlink:href="#DejaVuSans-48" transform="translate(280.015625 0)"/>
      <use xlink:href="#DejaVuSans-56" transform="translate(341.546875 0)"/>
     </g>
    </g>
   </g>
   <g id="patch_3">
    <path d="M 52.697422 249.748746
L 52.697422 90.243047
" style="fill: none; stroke: #8b949e; stroke-width: 0.8; stroke-linejoin: miter; stroke-linecap: square"/>
   </g>
   <g id="patch_4">
    <path d="M 52.697422 249.748746
L 520.489688 249.748746
" style="fill: none; stroke: #8b949e; stroke-width: 0.8; stroke-linejoin: miter; stroke-linecap: square"/>
   </g>
   <g id="PathCollection_1">
    <defs>
     <path id="m553f6acc40" d="M 0 4.636809
C 1.229696 4.636809 2.409193 4.148246 3.278719 3.278719
C 4.148246 2.409193 4.636809 1.229696 4.636809 0
C 4.636809 -1.229696 4.148246 -2.409193 3.278719 -3.278719
C 2.409193 -4.148246 1.229696 -4.636809 0 -4.636809
C -1.229696 -4.636809 -2.409193 -4.148246 -3.278719 -3.278719
C -4.148246 -2.409193 -4.636809 -1.229696 -4.636809 0
C -4.636809 1.229696 -4.148246 2.409193 -3.278719 3.278719
C -2.409193 4.148246 -1.229696 4.636809 0 4.636809
z
" style="stroke: #17212b; stroke-width: 0.65"/>
    </defs>
    <g clip-path="url(#p7f1770445d)">
     <use xlink:href="#m553f6acc40" x="91.405585" y="228.457237" style="fill: #0067a5; stroke: #17212b; stroke-width: 0.65"/>
    </g>
   </g>
   <g id="PathCollection_2">
    <g clip-path="url(#p7f1770445d)">
     <use xlink:href="#m553f6acc40" x="100.464942" y="233.110413" style="fill: #0067a5; stroke: #17212b; stroke-width: 0.65"/>
    </g>
   </g>
   <g id="PathCollection_3">
    <g clip-path="url(#p7f1770445d)">
     <use xlink:href="#m553f6acc40" x="109.524299" y="232.728727" style="fill: #0067a5; stroke: #17212b; stroke-width: 0.65"/>
    </g>
   </g>
   <g id="PathCollection_4">
    <g clip-path="url(#p7f1770445d)">
     <use xlink:href="#m553f6acc40" x="256.121171" y="233.368119" style="fill: #0067a5; stroke: #17212b; stroke-width: 0.65"/>
    </g>
   </g>
   <g id="PathCollection_5">
    <g clip-path="url(#p7f1770445d)">
     <use xlink:href="#m553f6acc40" x="265.180528" y="237.635075" style="fill: #0067a5; stroke: #17212b; stroke-width: 0.65"/>
    </g>
   </g>
   <g id="PathCollection_6">
    <g clip-path="url(#p7f1770445d)">
     <use xlink:href="#m553f6acc40" x="274.239886" y="242.498487" style="fill: #0067a5; stroke: #17212b; stroke-width: 0.65"/>
    </g>
   </g>
   <g id="PathCollection_7">
    <g clip-path="url(#p7f1770445d)">
     <use xlink:href="#m553f6acc40" x="420.836758" y="236.448721" style="fill: #0067a5; stroke: #17212b; stroke-width: 0.65"/>
    </g>
   </g>
   <g id="PathCollection_8">
    <g clip-path="url(#p7f1770445d)">
     <use xlink:href="#m553f6acc40" x="429.896115" y="234.743869" style="fill: #0067a5; stroke: #17212b; stroke-width: 0.65"/>
    </g>
   </g>
   <g id="PathCollection_9">
    <g clip-path="url(#p7f1770445d)">
     <use xlink:href="#m553f6acc40" x="438.955472" y="97.493306" style="fill: #0067a5; stroke: #17212b; stroke-width: 0.65"/>
    </g>
   </g>
   <g id="PathCollection_10">
    <defs>
     <path id="m4ab5050b2c" d="M -4.636809 4.636809
L 4.636809 4.636809
L 4.636809 -4.636809
L -4.636809 -4.636809
z
" style="stroke: #17212b; stroke-width: 0.65"/>
    </defs>
    <g clip-path="url(#p7f1770445d)">
     <use xlink:href="#m4ab5050b2c" x="134.231637" y="151.545041" style="fill: #d55e00; stroke: #17212b; stroke-width: 0.65"/>
    </g>
   </g>
   <g id="PathCollection_11">
    <g clip-path="url(#p7f1770445d)">
     <use xlink:href="#m4ab5050b2c" x="143.290994" y="238.780809" style="fill: #d55e00; stroke: #17212b; stroke-width: 0.65"/>
    </g>
   </g>
   <g id="PathCollection_12">
    <g clip-path="url(#p7f1770445d)">
     <use xlink:href="#m4ab5050b2c" x="152.350352" y="237.543898" style="fill: #d55e00; stroke: #17212b; stroke-width: 0.65"/>
    </g>
   </g>
   <g id="PathCollection_13">
    <g clip-path="url(#p7f1770445d)">
     <use xlink:href="#m4ab5050b2c" x="298.947224" y="242.086988" style="fill: #d55e00; stroke: #17212b; stroke-width: 0.65"/>
    </g>
   </g>
   <g id="PathCollection_14">
    <g clip-path="url(#p7f1770445d)">
     <use xlink:href="#m4ab5050b2c" x="308.006581" y="221.928241" style="fill: #d55e00; stroke: #17212b; stroke-width: 0.65"/>
    </g>
   </g>
   <g id="PathCollection_15">
    <g clip-path="url(#p7f1770445d)">
     <use xlink:href="#m4ab5050b2c" x="317.065938" y="236.434731" style="fill: #d55e00; stroke: #17212b; stroke-width: 0.65"/>
    </g>
   </g>
   <g id="PathCollection_16">
    <g clip-path="url(#p7f1770445d)">
     <use xlink:href="#m4ab5050b2c" x="463.66281" y="238.963837" style="fill: #d55e00; stroke: #17212b; stroke-width: 0.65"/>
    </g>
   </g>
   <g id="PathCollection_17">
    <g clip-path="url(#p7f1770445d)">
     <use xlink:href="#m4ab5050b2c" x="472.722167" y="230.612954" style="fill: #d55e00; stroke: #17212b; stroke-width: 0.65"/>
    </g>
   </g>
   <g id="PathCollection_18">
    <g clip-path="url(#p7f1770445d)">
     <use xlink:href="#m4ab5050b2c" x="481.781525" y="238.749741" style="fill: #d55e00; stroke: #17212b; stroke-width: 0.65"/>
    </g>
   </g>
   <g id="text_7">
    <!-- 1 -->
    <g style="fill: #ffffff" transform="translate(89.318241 230.015831) scale(0.06 -0.06)">
     <defs>
      <path id="DejaVuSans-Bold-14" d="M 750 831
L 1813 831
L 1813 3847
L 722 3622
L 722 4441
L 1806 4666
L 2950 4666
L 2950 831
L 4013 831
L 4013 0
L 750 0
L 750 831
z
" transform="scale(0.015625)"/>
     </defs>
     <use xlink:href="#DejaVuSans-Bold-14"/>
    </g>
   </g>
   <g id="text_8">
    <!-- 2 -->
    <g style="fill: #ffffff" transform="translate(98.377598 234.669007) scale(0.06 -0.06)">
     <defs>
      <path id="DejaVuSans-Bold-15" d="M 1844 884
L 3897 884
L 3897 0
L 506 0
L 506 884
L 2209 2388
Q 2438 2594 2547 2791
Q 2656 2988 2656 3200
Q 2656 3528 2436 3728
Q 2216 3928 1850 3928
Q 1569 3928 1234 3808
Q 900 3688 519 3450
L 519 4475
Q 925 4609 1322 4679
Q 1719 4750 2100 4750
Q 2938 4750 3402 4381
Q 3866 4013 3866 3353
Q 3866 2972 3669 2642
Q 3472 2313 2841 1759
L 1844 884
z
" transform="scale(0.015625)"/>
     </defs>
     <use xlink:href="#DejaVuSans-Bold-15"/>
    </g>
   </g>
   <g id="text_9">
    <!-- 3 -->
    <g style="fill: #ffffff" transform="translate(107.436955 234.287321) scale(0.06 -0.06)">
     <defs>
      <path id="DejaVuSans-Bold-16" d="M 2981 2516
Q 3453 2394 3698 2092
Q 3944 1791 3944 1325
Q 3944 631 3412 270
Q 2881 -91 1863 -91
Q 1503 -91 1142 -33
Q 781 25 428 141
L 428 1069
Q 766 900 1098 814
Q 1431 728 1753 728
Q 2231 728 2486 893
Q 2741 1059 2741 1369
Q 2741 1688 2480 1852
Q 2219 2016 1709 2016
L 1228 2016
L 1228 2791
L 1734 2791
Q 2188 2791 2409 2933
Q 2631 3075 2631 3366
Q 2631 3634 2415 3781
Q 2200 3928 1806 3928
Q 1516 3928 1219 3862
Q 922 3797 628 3669
L 628 4550
Q 984 4650 1334 4700
Q 1684 4750 2022 4750
Q 2931 4750 3382 4451
Q 3834 4153 3834 3553
Q 3834 3144 3618 2883
Q 3403 2622 2981 2516
z
" transform="scale(0.015625)"/>
     </defs>
     <use xlink:href="#DejaVuSans-Bold-16"/>
    </g>
   </g>
   <g id="text_10">
    <!-- 1 -->
    <g style="fill: #ffffff" transform="translate(254.033827 234.926713) scale(0.06 -0.06)">
     <use xlink:href="#DejaVuSans-Bold-14"/>
    </g>
   </g>
   <g id="text_11">
    <!-- 2 -->
    <g style="fill: #ffffff" transform="translate(263.093185 239.193668) scale(0.06 -0.06)">
     <use xlink:href="#DejaVuSans-Bold-15"/>
    </g>
   </g>
   <g id="text_12">
    <!-- 3 -->
    <g style="fill: #ffffff" transform="translate(272.152542 244.057081) scale(0.06 -0.06)">
     <use xlink:href="#DejaVuSans-Bold-16"/>
    </g>
   </g>
   <g id="text_13">
    <!-- 1 -->
    <g style="fill: #ffffff" transform="translate(418.749414 238.007315) scale(0.06 -0.06)">
     <use xlink:href="#DejaVuSans-Bold-14"/>
    </g>
   </g>
   <g id="text_14">
    <!-- 2 -->
    <g style="fill: #ffffff" transform="translate(427.808771 236.302462) scale(0.06 -0.06)">
     <use xlink:href="#DejaVuSans-Bold-15"/>
    </g>
   </g>
   <g id="text_15">
    <!-- 3 -->
    <g style="fill: #ffffff" transform="translate(436.868128 99.0519) scale(0.06 -0.06)">
     <use xlink:href="#DejaVuSans-Bold-16"/>
    </g>
   </g>
   <g id="text_16">
    <!-- 1 -->
    <g style="fill: #ffffff" transform="translate(132.144293 153.103635) scale(0.06 -0.06)">
     <use xlink:href="#DejaVuSans-Bold-14"/>
    </g>
   </g>
   <g id="text_17">
    <!-- 2 -->
    <g style="fill: #ffffff" transform="translate(141.203651 240.339402) scale(0.06 -0.06)">
     <use xlink:href="#DejaVuSans-Bold-15"/>
    </g>
   </g>
   <g id="text_18">
    <!-- 3 -->
    <g style="fill: #ffffff" transform="translate(150.263008 239.102492) scale(0.06 -0.06)">
     <use xlink:href="#DejaVuSans-Bold-16"/>
    </g>
   </g>
   <g id="text_19">
    <!-- 1 -->
    <g style="fill: #ffffff" transform="translate(296.85988 243.645581) scale(0.06 -0.06)">
     <use xlink:href="#DejaVuSans-Bold-14"/>
    </g>
   </g>
   <g id="text_20">
    <!-- 2 -->
    <g style="fill: #ffffff" transform="translate(305.919237 223.486834) scale(0.06 -0.06)">
     <use xlink:href="#DejaVuSans-Bold-15"/>
    </g>
   </g>
   <g id="text_21">
    <!-- 3 -->
    <g style="fill: #ffffff" transform="translate(314.978594 237.993325) scale(0.06 -0.06)">
     <use xlink:href="#DejaVuSans-Bold-16"/>
    </g>
   </g>
   <g id="text_22">
    <!-- 1 -->
    <g style="fill: #ffffff" transform="translate(461.575466 240.52243) scale(0.06 -0.06)">
     <use xlink:href="#DejaVuSans-Bold-14"/>
    </g>
   </g>
   <g id="text_23">
    <!-- 2 -->
    <g style="fill: #ffffff" transform="translate(470.634824 232.171548) scale(0.06 -0.06)">
     <use xlink:href="#DejaVuSans-Bold-15"/>
    </g>
   </g>
   <g id="text_24">
    <!-- 3 -->
    <g style="fill: #ffffff" transform="translate(479.694181 240.308335) scale(0.06 -0.06)">
     <use xlink:href="#DejaVuSans-Bold-16"/>
    </g>
   </g>
  </g>
  <g id="axes_2">
   <g id="patch_5">
    <path d="M 52.697422 423.083781
L 520.489688 423.083781
L 520.489688 263.578082
L 52.697422 263.578082
z
" style="fill: #f3f6f7"/>
   </g>
   <g id="matplotlib.axis_3">
    <g id="xtick_4">
     <g id="line2d_14">
      <g>
       <use xlink:href="#m2a50e1e0c6" x="121.877968" y="423.083781" style="stroke: #000000; stroke-width: 0.8"/>
      </g>
     </g>
     <g id="text_25">
      <!-- None -->
      <g transform="translate(110.137187 436.921672) scale(0.09 -0.09)">
       <defs>
        <path id="DejaVuSans-31" d="M 628 4666
L 1478 4666
L 3547 763
L 3547 4666
L 4159 4666
L 4159 0
L 3309 0
L 1241 3903
L 1241 0
L 628 0
L 628 4666
z
" transform="scale(0.015625)"/>
       </defs>
       <use xlink:href="#DejaVuSans-31"/>
       <use xlink:href="#DejaVuSans-52" transform="translate(74.8125 0)"/>
       <use xlink:href="#DejaVuSans-51" transform="translate(136 0)"/>
       <use xlink:href="#DejaVuSans-48" transform="translate(199.375 0)"/>
      </g>
     </g>
    </g>
    <g id="xtick_5">
     <g id="line2d_15">
      <g>
       <use xlink:href="#m2a50e1e0c6" x="286.593555" y="423.083781" style="stroke: #000000; stroke-width: 0.8"/>
      </g>
     </g>
     <g id="text_26">
      <!-- Skills -->
      <g transform="translate(275.036289 436.922375) scale(0.09 -0.09)">
       <defs>
        <path id="DejaVuSans-36" d="M 3425 4513
L 3425 3897
Q 3066 4069 2747 4153
Q 2428 4238 2131 4238
Q 1616 4238 1336 4038
Q 1056 3838 1056 3469
Q 1056 3159 1242 3001
Q 1428 2844 1947 2747
L 2328 2669
Q 3034 2534 3370 2195
Q 3706 1856 3706 1288
Q 3706 609 3251 259
Q 2797 -91 1919 -91
Q 1588 -91 1214 -16
Q 841 59 441 206
L 441 856
Q 825 641 1194 531
Q 1563 422 1919 422
Q 2459 422 2753 634
Q 3047 847 3047 1241
Q 3047 1584 2836 1778
Q 2625 1972 2144 2069
L 1759 2144
Q 1053 2284 737 2584
Q 422 2884 422 3419
Q 422 4038 858 4394
Q 1294 4750 2059 4750
Q 2388 4750 2728 4690
Q 3069 4631 3425 4513
z
" transform="scale(0.015625)"/>
       </defs>
       <use xlink:href="#DejaVuSans-36"/>
       <use xlink:href="#DejaVuSans-4e" transform="translate(63.484375 0)"/>
       <use xlink:href="#DejaVuSans-4c" transform="translate(121.390625 0)"/>
       <use xlink:href="#DejaVuSans-4f" transform="translate(149.171875 0)"/>
       <use xlink:href="#DejaVuSans-4f" transform="translate(176.953125 0)"/>
       <use xlink:href="#DejaVuSans-56" transform="translate(204.734375 0)"/>
      </g>
     </g>
    </g>
    <g id="xtick_6">
     <g id="line2d_16">
      <g>
       <use xlink:href="#m2a50e1e0c6" x="451.309141" y="423.083781" style="stroke: #000000; stroke-width: 0.8"/>
      </g>
     </g>
     <g id="text_27">
      <!-- All -->
      <g transform="translate(445.730547 436.922375) scale(0.09 -0.09)">
       <defs>
        <path id="DejaVuSans-24" d="M 2188 4044
L 1331 1722
L 3047 1722
L 2188 4044
z
M 1831 4666
L 2547 4666
L 4325 0
L 3669 0
L 3244 1197
L 1141 1197
L 716 0
L 50 0
L 1831 4666
z
" transform="scale(0.015625)"/>
       </defs>
       <use xlink:href="#DejaVuSans-24"/>
       <use xlink:href="#DejaVuSans-4f" transform="translate(68.40625 0)"/>
       <use xlink:href="#DejaVuSans-4f" transform="translate(96.1875 0)"/>
      </g>
     </g>
    </g>
    <g id="text_28">
     <!-- Instruction profile -->
     <g style="fill: #28323c" transform="translate(246.865586 449.923078) scale(0.09 -0.09)">
      <defs>
       <path id="DejaVuSans-2c" d="M 628 4666
L 1259 4666
L 1259 0
L 628 0
L 628 4666
z
" transform="scale(0.015625)"/>
       <path id="DejaVuSans-53" d="M 1159 525
L 1159 -1331
L 581 -1331
L 581 3500
L 1159 3500
L 1159 2969
Q 1341 3281 1617 3432
Q 1894 3584 2278 3584
Q 2916 3584 3314 3078
Q 3713 2572 3713 1747
Q 3713 922 3314 415
Q 2916 -91 2278 -91
Q 1894 -91 1617 61
Q 1341 213 1159 525
z
M 3116 1747
Q 3116 2381 2855 2742
Q 2594 3103 2138 3103
Q 1681 3103 1420 2742
Q 1159 2381 1159 1747
Q 1159 1113 1420 752
Q 1681 391 2138 391
Q 2594 391 2855 752
Q 3116 1113 3116 1747
z
" transform="scale(0.015625)"/>
       <path id="DejaVuSans-13af" d="M 3431 3500
L 3431 0
L 2853 0
L 2853 3053
L 1275 3053
L 1275 0
L 697 0
L 697 3053
L 147 3053
L 147 3500
L 697 3500
L 697 3744
Q 697 4316 967 4589
Q 1238 4863 1797 4863
L 2375 4863
L 2375 4384
L 1825 4384
Q 1516 4384 1395 4259
Q 1275 4134 1275 3809
L 1275 3500
L 3431 3500
z
M 2853 4856
L 3431 4856
L 3431 4128
L 2853 4128
L 2853 4856
z
" transform="scale(0.015625)"/>
      </defs>
      <use xlink:href="#DejaVuSans-2c"/>
      <use xlink:href="#DejaVuSans-51" transform="translate(29.5 0)"/>
      <use xlink:href="#DejaVuSans-56" transform="translate(92.875 0)"/>
      <use xlink:href="#DejaVuSans-57" transform="translate(144.96875 0)"/>
      <use xlink:href="#DejaVuSans-55" transform="translate(184.171875 0)"/>
      <use xlink:href="#DejaVuSans-58" transform="translate(225.28125 0)"/>
      <use xlink:href="#DejaVuSans-46" transform="translate(288.65625 0)"/>
      <use xlink:href="#DejaVuSans-57" transform="translate(343.640625 0)"/>
      <use xlink:href="#DejaVuSans-4c" transform="translate(382.84375 0)"/>
      <use xlink:href="#DejaVuSans-52" transform="translate(410.625 0)"/>
      <use xlink:href="#DejaVuSans-51" transform="translate(471.8125 0)"/>
      <use xlink:href="#DejaVuSans-3" transform="translate(535.1875 0)"/>
      <use xlink:href="#DejaVuSans-53" transform="translate(566.96875 0)"/>
      <use xlink:href="#DejaVuSans-55" transform="translate(630.453125 0)"/>
      <use xlink:href="#DejaVuSans-52" transform="translate(669.359375 0)"/>
      <use xlink:href="#DejaVuSans-13af" transform="translate(730.546875 0)"/>
      <use xlink:href="#DejaVuSans-4f" transform="translate(793.53125 0)"/>
      <use xlink:href="#DejaVuSans-48" transform="translate(821.3125 0)"/>
     </g>
    </g>
   </g>
   <g id="matplotlib.axis_4">
    <g id="ytick_6">
     <g id="line2d_17">
      <path d="M 52.697422 420.406115
L 520.489688 420.406115
" clip-path="url(#p47fa916599)" style="fill: none; stroke: #c9d1d5; stroke-width: 0.6; stroke-linecap: square"/>
     </g>
     <g id="line2d_18">
      <g>
       <use xlink:href="#m9c62cfc23c" x="52.697422" y="420.406115" style="stroke: #000000; stroke-width: 0.8"/>
      </g>
     </g>
     <g id="text_29">
      <!-- 2 -->
      <g transform="translate(39.971172 423.82506) scale(0.09 -0.09)">
       <use xlink:href="#DejaVuSans-15"/>
      </g>
     </g>
    </g>
    <g id="ytick_7">
     <g id="line2d_19">
      <path d="M 52.697422 398.375717
L 520.489688 398.375717
" clip-path="url(#p47fa916599)" style="fill: none; stroke: #c9d1d5; stroke-width: 0.6; stroke-linecap: square"/>
     </g>
     <g id="line2d_20">
      <g>
       <use xlink:href="#m9c62cfc23c" x="52.697422" y="398.375717" style="stroke: #000000; stroke-width: 0.8"/>
      </g>
     </g>
     <g id="text_30">
      <!-- 4 -->
      <g transform="translate(39.971172 401.794662) scale(0.09 -0.09)">
       <defs>
        <path id="DejaVuSans-17" d="M 2419 4116
L 825 1625
L 2419 1625
L 2419 4116
z
M 2253 4666
L 3047 4666
L 3047 1625
L 3713 1625
L 3713 1100
L 3047 1100
L 3047 0
L 2419 0
L 2419 1100
L 313 1100
L 313 1709
L 2253 4666
z
" transform="scale(0.015625)"/>
       </defs>
       <use xlink:href="#DejaVuSans-17"/>
      </g>
     </g>
    </g>
    <g id="ytick_8">
     <g id="line2d_21">
      <path d="M 52.697422 376.345319
L 520.489688 376.345319
" clip-path="url(#p47fa916599)" style="fill: none; stroke: #c9d1d5; stroke-width: 0.6; stroke-linecap: square"/>
     </g>
     <g id="line2d_22">
      <g>
       <use xlink:href="#m9c62cfc23c" x="52.697422" y="376.345319" style="stroke: #000000; stroke-width: 0.8"/>
      </g>
     </g>
     <g id="text_31">
      <!-- 6 -->
      <g transform="translate(39.971172 379.764264) scale(0.09 -0.09)">
       <defs>
        <path id="DejaVuSans-19" d="M 2113 2584
Q 1688 2584 1439 2293
Q 1191 2003 1191 1497
Q 1191 994 1439 701
Q 1688 409 2113 409
Q 2538 409 2786 701
Q 3034 994 3034 1497
Q 3034 2003 2786 2293
Q 2538 2584 2113 2584
z
M 3366 4563
L 3366 3988
Q 3128 4100 2886 4159
Q 2644 4219 2406 4219
Q 1781 4219 1451 3797
Q 1122 3375 1075 2522
Q 1259 2794 1537 2939
Q 1816 3084 2150 3084
Q 2853 3084 3261 2657
Q 3669 2231 3669 1497
Q 3669 778 3244 343
Q 2819 -91 2113 -91
Q 1303 -91 875 529
Q 447 1150 447 2328
Q 447 3434 972 4092
Q 1497 4750 2381 4750
Q 2619 4750 2861 4703
Q 3103 4656 3366 4563
z
" transform="scale(0.015625)"/>
       </defs>
       <use xlink:href="#DejaVuSans-19"/>
      </g>
     </g>
    </g>
    <g id="ytick_9">
     <g id="line2d_23">
      <path d="M 52.697422 354.314921
L 520.489688 354.314921
" clip-path="url(#p47fa916599)" style="fill: none; stroke: #c9d1d5; stroke-width: 0.6; stroke-linecap: square"/>
     </g>
     <g id="line2d_24">
      <g>
       <use xlink:href="#m9c62cfc23c" x="52.697422" y="354.314921" style="stroke: #000000; stroke-width: 0.8"/>
      </g>
     </g>
     <g id="text_32">
      <!-- 8 -->
      <g transform="translate(39.971172 357.733866) scale(0.09 -0.09)">
       <defs>
        <path id="DejaVuSans-1b" d="M 2034 2216
Q 1584 2216 1326 1975
Q 1069 1734 1069 1313
Q 1069 891 1326 650
Q 1584 409 2034 409
Q 2484 409 2743 651
Q 3003 894 3003 1313
Q 3003 1734 2745 1975
Q 2488 2216 2034 2216
z
M 1403 2484
Q 997 2584 770 2862
Q 544 3141 544 3541
Q 544 4100 942 4425
Q 1341 4750 2034 4750
Q 2731 4750 3128 4425
Q 3525 4100 3525 3541
Q 3525 3141 3298 2862
Q 3072 2584 2669 2484
Q 3125 2378 3379 2068
Q 3634 1759 3634 1313
Q 3634 634 3220 271
Q 2806 -91 2034 -91
Q 1263 -91 848 271
Q 434 634 434 1313
Q 434 1759 690 2068
Q 947 2378 1403 2484
z
M 1172 3481
Q 1172 3119 1398 2916
Q 1625 2713 2034 2713
Q 2441 2713 2670 2916
Q 2900 3119 2900 3481
Q 2900 3844 2670 4047
Q 2441 4250 2034 4250
Q 1625 4250 1398 4047
Q 1172 3844 1172 3481
z
" transform="scale(0.015625)"/>
       </defs>
       <use xlink:href="#DejaVuSans-1b"/>
      </g>
     </g>
    </g>
    <g id="ytick_10">
     <g id="line2d_25">
      <path d="M 52.697422 332.284523
L 520.489688 332.284523
" clip-path="url(#p47fa916599)" style="fill: none; stroke: #c9d1d5; stroke-width: 0.6; stroke-linecap: square"/>
     </g>
     <g id="line2d_26">
      <g>
       <use xlink:href="#m9c62cfc23c" x="52.697422" y="332.284523" style="stroke: #000000; stroke-width: 0.8"/>
      </g>
     </g>
     <g id="text_33">
      <!-- 10 -->
      <g transform="translate(34.244922 335.703468) scale(0.09 -0.09)">
       <use xlink:href="#DejaVuSans-14"/>
       <use xlink:href="#DejaVuSans-13" transform="translate(63.625 0)"/>
      </g>
     </g>
    </g>
    <g id="ytick_11">
     <g id="line2d_27">
      <path d="M 52.697422 310.254125
L 520.489688 310.254125
" clip-path="url(#p47fa916599)" style="fill: none; stroke: #c9d1d5; stroke-width: 0.6; stroke-linecap: square"/>
     </g>
     <g id="line2d_28">
      <g>
       <use xlink:href="#m9c62cfc23c" x="52.697422" y="310.254125" style="stroke: #000000; stroke-width: 0.8"/>
      </g>
     </g>
     <g id="text_34">
      <!-- 12 -->
      <g transform="translate(34.244922 313.67307) scale(0.09 -0.09)">
       <use xlink:href="#DejaVuSans-14"/>
       <use xlink:href="#DejaVuSans-15" transform="translate(63.625 0)"/>
      </g>
     </g>
    </g>
    <g id="ytick_12">
     <g id="line2d_29">
      <path d="M 52.697422 288.223727
L 520.489688 288.223727
" clip-path="url(#p47fa916599)" style="fill: none; stroke: #c9d1d5; stroke-width: 0.6; stroke-linecap: square"/>
     </g>
     <g id="line2d_30">
      <g>
       <use xlink:href="#m9c62cfc23c" x="52.697422" y="288.223727" style="stroke: #000000; stroke-width: 0.8"/>
      </g>
     </g>
     <g id="text_35">
      <!-- 14 -->
      <g transform="translate(34.244922 291.642672) scale(0.09 -0.09)">
       <use xlink:href="#DejaVuSans-14"/>
       <use xlink:href="#DejaVuSans-17" transform="translate(63.625 0)"/>
      </g>
     </g>
    </g>
    <g id="ytick_13">
     <g id="line2d_31">
      <path d="M 52.697422 266.193329
L 520.489688 266.193329
" clip-path="url(#p47fa916599)" style="fill: none; stroke: #c9d1d5; stroke-width: 0.6; stroke-linecap: square"/>
     </g>
     <g id="line2d_32">
      <g>
       <use xlink:href="#m9c62cfc23c" x="52.697422" y="266.193329" style="stroke: #000000; stroke-width: 0.8"/>
      </g>
     </g>
     <g id="text_36">
      <!-- 16 -->
      <g transform="translate(34.244922 269.612274) scale(0.09 -0.09)">
       <use xlink:href="#DejaVuSans-14"/>
       <use xlink:href="#DejaVuSans-19" transform="translate(63.625 0)"/>
      </g>
     </g>
    </g>
    <g id="text_37">
     <!-- Report workflow -->
     <g style="fill: #28323c" transform="translate(16.379473 379.836479) rotate(-90) scale(0.09 -0.09)">
      <defs>
       <path id="DejaVuSans-35" d="M 2841 2188
Q 3044 2119 3236 1894
Q 3428 1669 3622 1275
L 4263 0
L 3584 0
L 2988 1197
Q 2756 1666 2539 1819
Q 2322 1972 1947 1972
L 1259 1972
L 1259 0
L 628 0
L 628 4666
L 2053 4666
Q 2853 4666 3247 4331
Q 3641 3997 3641 3322
Q 3641 2881 3436 2590
Q 3231 2300 2841 2188
z
M 1259 4147
L 1259 2491
L 2053 2491
Q 2509 2491 2742 2702
Q 2975 2913 2975 3322
Q 2975 3731 2742 3939
Q 2509 4147 2053 4147
L 1259 4147
z
" transform="scale(0.015625)"/>
       <path id="DejaVuSans-13b0" d="M 1831 4863
L 3431 4863
L 3431 0
L 2853 0
L 2853 4384
L 1825 4384
Q 1516 4384 1395 4259
Q 1275 4134 1275 3809
L 1275 3500
L 2222 3500
L 2222 3053
L 1275 3053
L 1275 0
L 697 0
L 697 3053
L 147 3053
L 147 3500
L 697 3500
L 697 3744
Q 697 4328 969 4595
Q 1241 4863 1831 4863
z
" transform="scale(0.015625)"/>
      </defs>
      <use xlink:href="#DejaVuSans-35"/>
      <use xlink:href="#DejaVuSans-48" transform="translate(65 0)"/>
      <use xlink:href="#DejaVuSans-53" transform="translate(126.53125 0)"/>
      <use xlink:href="#DejaVuSans-52" transform="translate(190.015625 0)"/>
      <use xlink:href="#DejaVuSans-55" transform="translate(251.203125 0)"/>
      <use xlink:href="#DejaVuSans-57" transform="translate(292.3125 0)"/>
      <use xlink:href="#DejaVuSans-3" transform="translate(331.515625 0)"/>
      <use xlink:href="#DejaVuSans-5a" transform="translate(363.296875 0)"/>
      <use xlink:href="#DejaVuSans-52" transform="translate(445.078125 0)"/>
      <use xlink:href="#DejaVuSans-55" transform="translate(506.265625 0)"/>
      <use xlink:href="#DejaVuSans-4e" transform="translate(547.375 0)"/>
      <use xlink:href="#DejaVuSans-13b0" transform="translate(605.28125 0)"/>
      <use xlink:href="#DejaVuSans-52" transform="translate(668.265625 0)"/>
      <use xlink:href="#DejaVuSans-5a" transform="translate(729.453125 0)"/>
     </g>
     <!-- Minutes -->
     <g style="fill: #28323c" transform="translate(27.181934 361.04476) rotate(-90) scale(0.09 -0.09)">
      <use xlink:href="#DejaVuSans-30"/>
      <use xlink:href="#DejaVuSans-4c" transform="translate(86.28125 0)"/>
      <use xlink:href="#DejaVuSans-51" transform="translate(114.0625 0)"/>
      <use xlink:href="#DejaVuSans-58" transform="translate(177.4375 0)"/>
      <use xlink:href="#DejaVuSans-57" transform="translate(240.8125 0)"/>
      <use xlink:href="#DejaVuSans-48" transform="translate(280.015625 0)"/>
      <use xlink:href="#DejaVuSans-56" transform="translate(341.546875 0)"/>
     </g>
    </g>
   </g>
   <g id="patch_6">
    <path d="M 52.697422 423.083781
L 52.697422 263.578082
" style="fill: none; stroke: #8b949e; stroke-width: 0.8; stroke-linejoin: miter; stroke-linecap: square"/>
   </g>
   <g id="patch_7">
    <path d="M 52.697422 423.083781
L 520.489688 423.083781
" style="fill: none; stroke: #8b949e; stroke-width: 0.8; stroke-linejoin: miter; stroke-linecap: square"/>
   </g>
   <g id="PathCollection_19">
    <g clip-path="url(#p47fa916599)">
     <use xlink:href="#m553f6acc40" x="91.405585" y="270.828341" style="fill: #0067a5; stroke: #17212b; stroke-width: 0.65"/>
    </g>
   </g>
   <g id="PathCollection_20">
    <g clip-path="url(#p47fa916599)">
     <use xlink:href="#m553f6acc40" x="100.464942" y="384.649494" style="fill: #0067a5; stroke: #17212b; stroke-width: 0.65"/>
    </g>
   </g>
   <g id="PathCollection_21">
    <g clip-path="url(#p47fa916599)">
     <use xlink:href="#m553f6acc40" x="109.524299" y="368.573362" style="fill: #0067a5; stroke: #17212b; stroke-width: 0.65"/>
    </g>
   </g>
   <g id="PathCollection_22">
    <g clip-path="url(#p47fa916599)">
     <use xlink:href="#m553f6acc40" x="256.121171" y="285.477454" style="fill: #0067a5; stroke: #17212b; stroke-width: 0.65"/>
    </g>
   </g>
   <g id="PathCollection_23">
    <g clip-path="url(#p47fa916599)">
     <use xlink:href="#m553f6acc40" x="265.180528" y="397.596942" style="fill: #0067a5; stroke: #17212b; stroke-width: 0.65"/>
    </g>
   </g>
   <g id="PathCollection_24">
    <g clip-path="url(#p47fa916599)">
     <use xlink:href="#m553f6acc40" x="274.239886" y="379.707708" style="fill: #0067a5; stroke: #17212b; stroke-width: 0.65"/>
    </g>
   </g>
   <g id="PathCollection_25">
    <g clip-path="url(#p47fa916599)">
     <use xlink:href="#m553f6acc40" x="420.836758" y="396.665056" style="fill: #0067a5; stroke: #17212b; stroke-width: 0.65"/>
    </g>
   </g>
   <g id="PathCollection_26">
    <g clip-path="url(#p47fa916599)">
     <use xlink:href="#m553f6acc40" x="429.896115" y="407.954167" style="fill: #0067a5; stroke: #17212b; stroke-width: 0.65"/>
    </g>
   </g>
   <g id="PathCollection_27">
    <g clip-path="url(#p47fa916599)">
     <use xlink:href="#m553f6acc40" x="438.955472" y="402.497054" style="fill: #0067a5; stroke: #17212b; stroke-width: 0.65"/>
    </g>
   </g>
   <g id="PathCollection_28">
    <g clip-path="url(#p47fa916599)">
     <use xlink:href="#m4ab5050b2c" x="134.231637" y="408.086349" style="fill: #d55e00; stroke: #17212b; stroke-width: 0.65"/>
    </g>
   </g>
   <g id="PathCollection_29">
    <g clip-path="url(#p47fa916599)">
     <use xlink:href="#m4ab5050b2c" x="143.290994" y="401.206072" style="fill: #d55e00; stroke: #17212b; stroke-width: 0.65"/>
    </g>
   </g>
   <g id="PathCollection_30">
    <g clip-path="url(#p47fa916599)">
     <use xlink:href="#m4ab5050b2c" x="152.350352" y="356.046877" style="fill: #d55e00; stroke: #17212b; stroke-width: 0.65"/>
    </g>
   </g>
   <g id="PathCollection_31">
    <g clip-path="url(#p47fa916599)">
     <use xlink:href="#m4ab5050b2c" x="298.947224" y="395.968345" style="fill: #d55e00; stroke: #17212b; stroke-width: 0.65"/>
    </g>
   </g>
   <g id="PathCollection_32">
    <g clip-path="url(#p47fa916599)">
     <use xlink:href="#m4ab5050b2c" x="308.006581" y="394.986157" style="fill: #d55e00; stroke: #17212b; stroke-width: 0.65"/>
    </g>
   </g>
   <g id="PathCollection_33">
    <g clip-path="url(#p47fa916599)">
     <use xlink:href="#m4ab5050b2c" x="317.065938" y="412.8943" style="fill: #d55e00; stroke: #17212b; stroke-width: 0.65"/>
    </g>
   </g>
   <g id="PathCollection_34">
    <g clip-path="url(#p47fa916599)">
     <use xlink:href="#m4ab5050b2c" x="463.66281" y="406.311801" style="fill: #d55e00; stroke: #17212b; stroke-width: 0.65"/>
    </g>
   </g>
   <g id="PathCollection_35">
    <g clip-path="url(#p47fa916599)">
     <use xlink:href="#m4ab5050b2c" x="472.722167" y="401.487878" style="fill: #d55e00; stroke: #17212b; stroke-width: 0.65"/>
    </g>
   </g>
   <g id="PathCollection_36">
    <g clip-path="url(#p47fa916599)">
     <use xlink:href="#m4ab5050b2c" x="481.781525" y="415.833522" style="fill: #d55e00; stroke: #17212b; stroke-width: 0.65"/>
    </g>
   </g>
   <g id="text_38">
    <!-- 1 -->
    <g style="fill: #ffffff" transform="translate(89.318241 272.386935) scale(0.06 -0.06)">
     <use xlink:href="#DejaVuSans-Bold-14"/>
    </g>
   </g>
   <g id="text_39">
    <!-- 2 -->
    <g style="fill: #ffffff" transform="translate(98.377598 386.208088) scale(0.06 -0.06)">
     <use xlink:href="#DejaVuSans-Bold-15"/>
    </g>
   </g>
   <g id="text_40">
    <!-- 3 -->
    <g style="fill: #ffffff" transform="translate(107.436955 370.131955) scale(0.06 -0.06)">
     <use xlink:href="#DejaVuSans-Bold-16"/>
    </g>
   </g>
   <g id="text_41">
    <!-- 1 -->
    <g style="fill: #ffffff" transform="translate(254.033827 287.036048) scale(0.06 -0.06)">
     <use xlink:href="#DejaVuSans-Bold-14"/>
    </g>
   </g>
   <g id="text_42">
    <!-- 2 -->
    <g style="fill: #ffffff" transform="translate(263.093185 399.155536) scale(0.06 -0.06)">
     <use xlink:href="#DejaVuSans-Bold-15"/>
    </g>
   </g>
   <g id="text_43">
    <!-- 3 -->
    <g style="fill: #ffffff" transform="translate(272.152542 381.266302) scale(0.06 -0.06)">
     <use xlink:href="#DejaVuSans-Bold-16"/>
    </g>
   </g>
   <g id="text_44">
    <!-- 1 -->
    <g style="fill: #ffffff" transform="translate(418.749414 398.22365) scale(0.06 -0.06)">
     <use xlink:href="#DejaVuSans-Bold-14"/>
    </g>
   </g>
   <g id="text_45">
    <!-- 2 -->
    <g style="fill: #ffffff" transform="translate(427.808771 409.512761) scale(0.06 -0.06)">
     <use xlink:href="#DejaVuSans-Bold-15"/>
    </g>
   </g>
   <g id="text_46">
    <!-- 3 -->
    <g style="fill: #ffffff" transform="translate(436.868128 404.055647) scale(0.06 -0.06)">
     <use xlink:href="#DejaVuSans-Bold-16"/>
    </g>
   </g>
   <g id="text_47">
    <!-- 1 -->
    <g style="fill: #ffffff" transform="translate(132.144293 409.644943) scale(0.06 -0.06)">
     <use xlink:href="#DejaVuSans-Bold-14"/>
    </g>
   </g>
   <g id="text_48">
    <!-- 2 -->
    <g style="fill: #ffffff" transform="translate(141.203651 402.764666) scale(0.06 -0.06)">
     <use xlink:href="#DejaVuSans-Bold-15"/>
    </g>
   </g>
   <g id="text_49">
    <!-- 3 -->
    <g style="fill: #ffffff" transform="translate(150.263008 357.605471) scale(0.06 -0.06)">
     <use xlink:href="#DejaVuSans-Bold-16"/>
    </g>
   </g>
   <g id="text_50">
    <!-- 1 -->
    <g style="fill: #ffffff" transform="translate(296.85988 397.526939) scale(0.06 -0.06)">
     <use xlink:href="#DejaVuSans-Bold-14"/>
    </g>
   </g>
   <g id="text_51">
    <!-- 2 -->
    <g style="fill: #ffffff" transform="translate(305.919237 396.54475) scale(0.06 -0.06)">
     <use xlink:href="#DejaVuSans-Bold-15"/>
    </g>
   </g>
   <g id="text_52">
    <!-- 3 -->
    <g style="fill: #ffffff" transform="translate(314.978594 414.452894) scale(0.06 -0.06)">
     <use xlink:href="#DejaVuSans-Bold-16"/>
    </g>
   </g>
   <g id="text_53">
    <!-- 1 -->
    <g style="fill: #ffffff" transform="translate(461.575466 407.870394) scale(0.06 -0.06)">
     <use xlink:href="#DejaVuSans-Bold-14"/>
    </g>
   </g>
   <g id="text_54">
    <!-- 2 -->
    <g style="fill: #ffffff" transform="translate(470.634824 403.046472) scale(0.06 -0.06)">
     <use xlink:href="#DejaVuSans-Bold-15"/>
    </g>
   </g>
   <g id="text_55">
    <!-- 3 -->
    <g style="fill: #ffffff" transform="translate(479.694181 417.392116) scale(0.06 -0.06)">
     <use xlink:href="#DejaVuSans-Bold-16"/>
    </g>
   </g>
  </g>
  <g id="text_56">
   <!-- Wall-clock duration by profile, model, and wave -->
   <g transform="translate(88.892656 18.517969) scale(0.13 -0.13)">
    <defs>
     <path id="DejaVuSans-Bold-3a" d="M 191 4666
L 1344 4666
L 2150 1275
L 2950 4666
L 4109 4666
L 4909 1275
L 5716 4666
L 6859 4666
L 5759 0
L 4372 0
L 3525 3547
L 2688 0
L 1300 0
L 191 4666
z
" transform="scale(0.015625)"/>
     <path id="DejaVuSans-Bold-44" d="M 2106 1575
Q 1756 1575 1579 1456
Q 1403 1338 1403 1106
Q 1403 894 1545 773
Q 1688 653 1941 653
Q 2256 653 2472 879
Q 2688 1106 2688 1447
L 2688 1575
L 2106 1575
z
M 3816 1997
L 3816 0
L 2688 0
L 2688 519
Q 2463 200 2181 54
Q 1900 -91 1497 -91
Q 953 -91 614 226
Q 275 544 275 1050
Q 275 1666 698 1953
Q 1122 2241 2028 2241
L 2688 2241
L 2688 2328
Q 2688 2594 2478 2717
Q 2269 2841 1825 2841
Q 1466 2841 1156 2769
Q 847 2697 581 2553
L 581 3406
Q 941 3494 1303 3539
Q 1666 3584 2028 3584
Q 2975 3584 3395 3211
Q 3816 2838 3816 1997
z
" transform="scale(0.015625)"/>
     <path id="DejaVuSans-Bold-4f" d="M 538 4863
L 1656 4863
L 1656 0
L 538 0
L 538 4863
z
" transform="scale(0.015625)"/>
     <path id="DejaVuSans-Bold-10" d="M 347 2297
L 2309 2297
L 2309 1388
L 347 1388
L 347 2297
z
" transform="scale(0.015625)"/>
     <path id="DejaVuSans-Bold-46" d="M 3366 3391
L 3366 2478
Q 3138 2634 2908 2709
Q 2678 2784 2431 2784
Q 1963 2784 1702 2511
Q 1441 2238 1441 1747
Q 1441 1256 1702 982
Q 1963 709 2431 709
Q 2694 709 2930 787
Q 3166 866 3366 1019
L 3366 103
Q 3103 6 2833 -42
Q 2563 -91 2291 -91
Q 1344 -91 809 395
Q 275 881 275 1747
Q 275 2613 809 3098
Q 1344 3584 2291 3584
Q 2566 3584 2833 3536
Q 3100 3488 3366 3391
z
" transform="scale(0.015625)"/>
     <path id="DejaVuSans-Bold-52" d="M 2203 2784
Q 1831 2784 1636 2517
Q 1441 2250 1441 1747
Q 1441 1244 1636 976
Q 1831 709 2203 709
Q 2569 709 2762 976
Q 2956 1244 2956 1747
Q 2956 2250 2762 2517
Q 2569 2784 2203 2784
z
M 2203 3584
Q 3106 3584 3614 3096
Q 4122 2609 4122 1747
Q 4122 884 3614 396
Q 3106 -91 2203 -91
Q 1297 -91 786 396
Q 275 884 275 1747
Q 275 2609 786 3096
Q 1297 3584 2203 3584
z
" transform="scale(0.015625)"/>
     <path id="DejaVuSans-Bold-4e" d="M 538 4863
L 1656 4863
L 1656 2216
L 2944 3500
L 4244 3500
L 2534 1894
L 4378 0
L 3022 0
L 1656 1459
L 1656 0
L 538 0
L 538 4863
z
" transform="scale(0.015625)"/>
     <path id="DejaVuSans-Bold-3" transform="scale(0.015625)"/>
     <path id="DejaVuSans-Bold-47" d="M 2919 2988
L 2919 4863
L 4044 4863
L 4044 0
L 2919 0
L 2919 506
Q 2688 197 2409 53
Q 2131 -91 1766 -91
Q 1119 -91 703 423
Q 288 938 288 1747
Q 288 2556 703 3070
Q 1119 3584 1766 3584
Q 2128 3584 2408 3439
Q 2688 3294 2919 2988
z
M 2181 722
Q 2541 722 2730 984
Q 2919 1247 2919 1747
Q 2919 2247 2730 2509
Q 2541 2772 2181 2772
Q 1825 2772 1636 2509
Q 1447 2247 1447 1747
Q 1447 1247 1636 984
Q 1825 722 2181 722
z
" transform="scale(0.015625)"/>
     <path id="DejaVuSans-Bold-58" d="M 500 1363
L 500 3500
L 1625 3500
L 1625 3150
Q 1625 2866 1622 2436
Q 1619 2006 1619 1863
Q 1619 1441 1641 1255
Q 1663 1069 1716 984
Q 1784 875 1895 815
Q 2006 756 2150 756
Q 2500 756 2700 1025
Q 2900 1294 2900 1772
L 2900 3500
L 4019 3500
L 4019 0
L 2900 0
L 2900 506
Q 2647 200 2364 54
Q 2081 -91 1741 -91
Q 1134 -91 817 281
Q 500 653 500 1363
z
" transform="scale(0.015625)"/>
     <path id="DejaVuSans-Bold-55" d="M 3138 2547
Q 2991 2616 2845 2648
Q 2700 2681 2553 2681
Q 2122 2681 1889 2404
Q 1656 2128 1656 1613
L 1656 0
L 538 0
L 538 3500
L 1656 3500
L 1656 2925
Q 1872 3269 2151 3426
Q 2431 3584 2822 3584
Q 2878 3584 2943 3579
Q 3009 3575 3134 3559
L 3138 2547
z
" transform="scale(0.015625)"/>
     <path id="DejaVuSans-Bold-57" d="M 1759 4494
L 1759 3500
L 2913 3500
L 2913 2700
L 1759 2700
L 1759 1216
Q 1759 972 1856 886
Q 1953 800 2241 800
L 2816 800
L 2816 0
L 1856 0
Q 1194 0 917 276
Q 641 553 641 1216
L 641 2700
L 84 2700
L 84 3500
L 641 3500
L 641 4494
L 1759 4494
z
" transform="scale(0.015625)"/>
     <path id="DejaVuSans-Bold-4c" d="M 538 3500
L 1656 3500
L 1656 0
L 538 0
L 538 3500
z
M 538 4863
L 1656 4863
L 1656 3950
L 538 3950
L 538 4863
z
" transform="scale(0.015625)"/>
     <path id="DejaVuSans-Bold-51" d="M 4056 2131
L 4056 0
L 2931 0
L 2931 347
L 2931 1631
Q 2931 2084 2911 2256
Q 2891 2428 2841 2509
Q 2775 2619 2662 2680
Q 2550 2741 2406 2741
Q 2056 2741 1856 2470
Q 1656 2200 1656 1722
L 1656 0
L 538 0
L 538 3500
L 1656 3500
L 1656 2988
Q 1909 3294 2193 3439
Q 2478 3584 2822 3584
Q 3428 3584 3742 3212
Q 4056 2841 4056 2131
z
" transform="scale(0.015625)"/>
     <path id="DejaVuSans-Bold-45" d="M 2400 722
Q 2759 722 2948 984
Q 3138 1247 3138 1747
Q 3138 2247 2948 2509
Q 2759 2772 2400 2772
Q 2041 2772 1848 2508
Q 1656 2244 1656 1747
Q 1656 1250 1848 986
Q 2041 722 2400 722
z
M 1656 2988
Q 1888 3294 2169 3439
Q 2450 3584 2816 3584
Q 3463 3584 3878 3070
Q 4294 2556 4294 1747
Q 4294 938 3878 423
Q 3463 -91 2816 -91
Q 2450 -91 2169 54
Q 1888 200 1656 506
L 1656 0
L 538 0
L 538 4863
L 1656 4863
L 1656 2988
z
" transform="scale(0.015625)"/>
     <path id="DejaVuSans-Bold-5c" d="M 78 3500
L 1197 3500
L 2138 1125
L 2938 3500
L 4056 3500
L 2584 -331
Q 2363 -916 2067 -1148
Q 1772 -1381 1288 -1381
L 641 -1381
L 641 -647
L 991 -647
Q 1275 -647 1404 -556
Q 1534 -466 1606 -231
L 1638 -134
L 78 3500
z
" transform="scale(0.015625)"/>
     <path id="DejaVuSans-Bold-53" d="M 1656 506
L 1656 -1331
L 538 -1331
L 538 3500
L 1656 3500
L 1656 2988
Q 1888 3294 2169 3439
Q 2450 3584 2816 3584
Q 3463 3584 3878 3070
Q 4294 2556 4294 1747
Q 4294 938 3878 423
Q 3463 -91 2816 -91
Q 2450 -91 2169 54
Q 1888 200 1656 506
z
M 2400 2772
Q 2041 2772 1848 2508
Q 1656 2244 1656 1747
Q 1656 1250 1848 986
Q 2041 722 2400 722
Q 2759 722 2948 984
Q 3138 1247 3138 1747
Q 3138 2247 2948 2509
Q 2759 2772 2400 2772
z
" transform="scale(0.015625)"/>
     <path id="DejaVuSans-Bold-13ab" d="M 3078 4863
L 4206 4863
L 4206 3950
L 3078 3950
L 3078 4863
z
M 2847 4863
L 2847 4128
L 2228 4128
Q 1994 4128 1903 4042
Q 1813 3956 1813 3744
L 1813 3500
L 4206 3500
L 4206 0
L 3078 0
L 3078 2700
L 1813 2700
L 1813 0
L 684 0
L 684 2700
L 134 2700
L 134 3500
L 684 3500
L 684 3744
Q 684 4316 1003 4589
Q 1322 4863 1991 4863
L 2847 4863
z
" transform="scale(0.015625)"/>
     <path id="DejaVuSans-Bold-48" d="M 4031 1759
L 4031 1441
L 1416 1441
Q 1456 1047 1700 850
Q 1944 653 2381 653
Q 2734 653 3104 758
Q 3475 863 3866 1075
L 3866 213
Q 3469 63 3072 -14
Q 2675 -91 2278 -91
Q 1328 -91 801 392
Q 275 875 275 1747
Q 275 2603 792 3093
Q 1309 3584 2216 3584
Q 3041 3584 3536 3087
Q 4031 2591 4031 1759
z
M 2881 2131
Q 2881 2450 2695 2645
Q 2509 2841 2209 2841
Q 1884 2841 1681 2658
Q 1478 2475 1428 2131
L 2881 2131
z
" transform="scale(0.015625)"/>
     <path id="DejaVuSans-Bold-f" d="M 653 1209
L 1778 1209
L 1778 256
L 1006 -909
L 341 -909
L 653 256
L 653 1209
z
" transform="scale(0.015625)"/>
     <path id="DejaVuSans-Bold-50" d="M 3781 2919
Q 3994 3244 4286 3414
Q 4578 3584 4928 3584
Q 5531 3584 5847 3212
Q 6163 2841 6163 2131
L 6163 0
L 5038 0
L 5038 1825
Q 5041 1866 5042 1909
Q 5044 1953 5044 2034
Q 5044 2406 4934 2573
Q 4825 2741 4581 2741
Q 4263 2741 4089 2478
Q 3916 2216 3909 1719
L 3909 0
L 2784 0
L 2784 1825
Q 2784 2406 2684 2573
Q 2584 2741 2328 2741
Q 2006 2741 1831 2477
Q 1656 2213 1656 1722
L 1656 0
L 531 0
L 531 3500
L 1656 3500
L 1656 2988
Q 1863 3284 2130 3434
Q 2397 3584 2719 3584
Q 3081 3584 3359 3409
Q 3638 3234 3781 2919
z
" transform="scale(0.015625)"/>
     <path id="DejaVuSans-Bold-5a" d="M 225 3500
L 1313 3500
L 1900 1088
L 2491 3500
L 3425 3500
L 4013 1113
L 4603 3500
L 5691 3500
L 4769 0
L 3547 0
L 2956 2406
L 2369 0
L 1147 0
L 225 3500
z
" transform="scale(0.015625)"/>
     <path id="DejaVuSans-Bold-59" d="M 97 3500
L 1216 3500
L 2088 1081
L 2956 3500
L 4078 3500
L 2700 0
L 1472 0
L 97 3500
z
" transform="scale(0.015625)"/>
    </defs>
    <use xlink:href="#DejaVuSans-Bold-3a"/>
    <use xlink:href="#DejaVuSans-Bold-44" transform="translate(106.734375 0)"/>
    <use xlink:href="#DejaVuSans-Bold-4f" transform="translate(174.21875 0)"/>
    <use xlink:href="#DejaVuSans-Bold-4f" transform="translate(208.5 0)"/>
    <use xlink:href="#DejaVuSans-Bold-10" transform="translate(242.78125 0)"/>
    <use xlink:href="#DejaVuSans-Bold-46" transform="translate(284.28125 0)"/>
    <use xlink:href="#DejaVuSans-Bold-4f" transform="translate(343.5625 0)"/>
    <use xlink:href="#DejaVuSans-Bold-52" transform="translate(377.84375 0)"/>
    <use xlink:href="#DejaVuSans-Bold-46" transform="translate(446.546875 0)"/>
    <use xlink:href="#DejaVuSans-Bold-4e" transform="translate(505.828125 0)"/>
    <use xlink:href="#DejaVuSans-Bold-3" transform="translate(572.328125 0)"/>
    <use xlink:href="#DejaVuSans-Bold-47" transform="translate(607.140625 0)"/>
    <use xlink:href="#DejaVuSans-Bold-58" transform="translate(678.71875 0)"/>
    <use xlink:href="#DejaVuSans-Bold-55" transform="translate(749.90625 0)"/>
    <use xlink:href="#DejaVuSans-Bold-44" transform="translate(799.21875 0)"/>
    <use xlink:href="#DejaVuSans-Bold-57" transform="translate(866.703125 0)"/>
    <use xlink:href="#DejaVuSans-Bold-4c" transform="translate(914.5 0)"/>
    <use xlink:href="#DejaVuSans-Bold-52" transform="translate(948.78125 0)"/>
    <use xlink:href="#DejaVuSans-Bold-51" transform="translate(1017.484375 0)"/>
    <use xlink:href="#DejaVuSans-Bold-3" transform="translate(1088.671875 0)"/>
    <use xlink:href="#DejaVuSans-Bold-45" transform="translate(1123.484375 0)"/>
    <use xlink:href="#DejaVuSans-Bold-5c" transform="translate(1195.0625 0)"/>
    <use xlink:href="#DejaVuSans-Bold-3" transform="translate(1260.25 0)"/>
    <use xlink:href="#DejaVuSans-Bold-53" transform="translate(1295.0625 0)"/>
    <use xlink:href="#DejaVuSans-Bold-55" transform="translate(1366.640625 0)"/>
    <use xlink:href="#DejaVuSans-Bold-52" transform="translate(1415.953125 0)"/>
    <use xlink:href="#DejaVuSans-Bold-13ab" transform="translate(1484.65625 0)"/>
    <use xlink:href="#DejaVuSans-Bold-4f" transform="translate(1558.78125 0)"/>
    <use xlink:href="#DejaVuSans-Bold-48" transform="translate(1593.0625 0)"/>
    <use xlink:href="#DejaVuSans-Bold-f" transform="translate(1660.890625 0)"/>
    <use xlink:href="#DejaVuSans-Bold-3" transform="translate(1698.875 0)"/>
    <use xlink:href="#DejaVuSans-Bold-50" transform="translate(1733.6875 0)"/>
    <use xlink:href="#DejaVuSans-Bold-52" transform="translate(1837.890625 0)"/>
    <use xlink:href="#DejaVuSans-Bold-47" transform="translate(1906.59375 0)"/>
    <use xlink:href="#DejaVuSans-Bold-48" transform="translate(1978.171875 0)"/>
    <use xlink:href="#DejaVuSans-Bold-4f" transform="translate(2046 0)"/>
    <use xlink:href="#DejaVuSans-Bold-f" transform="translate(2080.28125 0)"/>
    <use xlink:href="#DejaVuSans-Bold-3" transform="translate(2118.265625 0)"/>
    <use xlink:href="#DejaVuSans-Bold-44" transform="translate(2153.078125 0)"/>
    <use xlink:href="#DejaVuSans-Bold-51" transform="translate(2220.5625 0)"/>
    <use xlink:href="#DejaVuSans-Bold-47" transform="translate(2291.75 0)"/>
    <use xlink:href="#DejaVuSans-Bold-3" transform="translate(2363.328125 0)"/>
    <use xlink:href="#DejaVuSans-Bold-5a" transform="translate(2398.140625 0)"/>
    <use xlink:href="#DejaVuSans-Bold-44" transform="translate(2490.53125 0)"/>
    <use xlink:href="#DejaVuSans-Bold-59" transform="translate(2558.015625 0)"/>
    <use xlink:href="#DejaVuSans-Bold-48" transform="translate(2623.203125 0)"/>
   </g>
  </g>
  <g id="text_57">
   <!-- Point labels 1–3 identify waves. -->
   <g style="fill: #4c5961" transform="translate(201.007187 481.104) scale(0.08 -0.08)">
    <defs>
     <path id="DejaVuSans-33" d="M 1259 4147
L 1259 2394
L 2053 2394
Q 2494 2394 2734 2622
Q 2975 2850 2975 3272
Q 2975 3691 2734 3919
Q 2494 4147 2053 4147
L 1259 4147
z
M 628 4666
L 2053 4666
Q 2838 4666 3239 4311
Q 3641 3956 3641 3272
Q 3641 2581 3239 2228
Q 2838 1875 2053 1875
L 1259 1875
L 1259 0
L 628 0
L 628 4666
z
" transform="scale(0.015625)"/>
     <path id="DejaVuSans-44" d="M 2194 1759
Q 1497 1759 1228 1600
Q 959 1441 959 1056
Q 959 750 1161 570
Q 1363 391 1709 391
Q 2188 391 2477 730
Q 2766 1069 2766 1631
L 2766 1759
L 2194 1759
z
M 3341 1997
L 3341 0
L 2766 0
L 2766 531
Q 2569 213 2275 61
Q 1981 -91 1556 -91
Q 1019 -91 701 211
Q 384 513 384 1019
Q 384 1609 779 1909
Q 1175 2209 1959 2209
L 2766 2209
L 2766 2266
Q 2766 2663 2505 2880
Q 2244 3097 1772 3097
Q 1472 3097 1187 3025
Q 903 2953 641 2809
L 641 3341
Q 956 3463 1253 3523
Q 1550 3584 1831 3584
Q 2591 3584 2966 3190
Q 3341 2797 3341 1997
z
" transform="scale(0.015625)"/>
     <path id="DejaVuSans-45" d="M 3116 1747
Q 3116 2381 2855 2742
Q 2594 3103 2138 3103
Q 1681 3103 1420 2742
Q 1159 2381 1159 1747
Q 1159 1113 1420 752
Q 1681 391 2138 391
Q 2594 391 2855 752
Q 3116 1113 3116 1747
z
M 1159 2969
Q 1341 3281 1617 3432
Q 1894 3584 2278 3584
Q 2916 3584 3314 3078
Q 3713 2572 3713 1747
Q 3713 922 3314 415
Q 2916 -91 2278 -91
Q 1894 -91 1617 61
Q 1341 213 1159 525
L 1159 0
L 581 0
L 581 4863
L 1159 4863
L 1159 2969
z
" transform="scale(0.015625)"/>
     <path id="DejaVuSans-af5" d="M 313 1978
L 2888 1978
L 2888 1528
L 313 1528
L 313 1978
z
" transform="scale(0.015625)"/>
     <path id="DejaVuSans-16" d="M 2597 2516
Q 3050 2419 3304 2112
Q 3559 1806 3559 1356
Q 3559 666 3084 287
Q 2609 -91 1734 -91
Q 1441 -91 1130 -33
Q 819 25 488 141
L 488 750
Q 750 597 1062 519
Q 1375 441 1716 441
Q 2309 441 2620 675
Q 2931 909 2931 1356
Q 2931 1769 2642 2001
Q 2353 2234 1838 2234
L 1294 2234
L 1294 2753
L 1863 2753
Q 2328 2753 2575 2939
Q 2822 3125 2822 3475
Q 2822 3834 2567 4026
Q 2313 4219 1838 4219
Q 1578 4219 1281 4162
Q 984 4106 628 3988
L 628 4550
Q 988 4650 1302 4700
Q 1616 4750 1894 4750
Q 2613 4750 3031 4423
Q 3450 4097 3450 3541
Q 3450 3153 3228 2886
Q 3006 2619 2597 2516
z
" transform="scale(0.015625)"/>
     <path id="DejaVuSans-47" d="M 2906 2969
L 2906 4863
L 3481 4863
L 3481 0
L 2906 0
L 2906 525
Q 2725 213 2448 61
Q 2172 -91 1784 -91
Q 1150 -91 751 415
Q 353 922 353 1747
Q 353 2572 751 3078
Q 1150 3584 1784 3584
Q 2172 3584 2448 3432
Q 2725 3281 2906 2969
z
M 947 1747
Q 947 1113 1208 752
Q 1469 391 1925 391
Q 2381 391 2643 752
Q 2906 1113 2906 1747
Q 2906 2381 2643 2742
Q 2381 3103 1925 3103
Q 1469 3103 1208 2742
Q 947 2381 947 1747
z
" transform="scale(0.015625)"/>
     <path id="DejaVuSans-49" d="M 2375 4863
L 2375 4384
L 1825 4384
Q 1516 4384 1395 4259
Q 1275 4134 1275 3809
L 1275 3500
L 2222 3500
L 2222 3053
L 1275 3053
L 1275 0
L 697 0
L 697 3053
L 147 3053
L 147 3500
L 697 3500
L 697 3744
Q 697 4328 969 4595
Q 1241 4863 1831 4863
L 2375 4863
z
" transform="scale(0.015625)"/>
     <path id="DejaVuSans-5c" d="M 2059 -325
Q 1816 -950 1584 -1140
Q 1353 -1331 966 -1331
L 506 -1331
L 506 -850
L 844 -850
Q 1081 -850 1212 -737
Q 1344 -625 1503 -206
L 1606 56
L 191 3500
L 800 3500
L 1894 763
L 2988 3500
L 3597 3500
L 2059 -325
z
" transform="scale(0.015625)"/>
     <path id="DejaVuSans-59" d="M 191 3500
L 800 3500
L 1894 563
L 2988 3500
L 3597 3500
L 2284 0
L 1503 0
L 191 3500
z
" transform="scale(0.015625)"/>
     <path id="DejaVuSans-11" d="M 684 794
L 1344 794
L 1344 0
L 684 0
L 684 794
z
" transform="scale(0.015625)"/>
    </defs>
    <use xlink:href="#DejaVuSans-33"/>
    <use xlink:href="#DejaVuSans-52" transform="translate(56.734375 0)"/>
    <use xlink:href="#DejaVuSans-4c" transform="translate(117.921875 0)"/>
    <use xlink:href="#DejaVuSans-51" transform="translate(145.703125 0)"/>
    <use xlink:href="#DejaVuSans-57" transform="translate(209.078125 0)"/>
    <use xlink:href="#DejaVuSans-3" transform="translate(248.28125 0)"/>
    <use xlink:href="#DejaVuSans-4f" transform="translate(280.0625 0)"/>
    <use xlink:href="#DejaVuSans-44" transform="translate(307.84375 0)"/>
    <use xlink:href="#DejaVuSans-45" transform="translate(369.125 0)"/>
    <use xlink:href="#DejaVuSans-48" transform="translate(432.609375 0)"/>
    <use xlink:href="#DejaVuSans-4f" transform="translate(494.140625 0)"/>
    <use xlink:href="#DejaVuSans-56" transform="translate(521.921875 0)"/>
    <use xlink:href="#DejaVuSans-3" transform="translate(574.015625 0)"/>
    <use xlink:href="#DejaVuSans-14" transform="translate(605.796875 0)"/>
    <use xlink:href="#DejaVuSans-af5" transform="translate(669.421875 0)"/>
    <use xlink:href="#DejaVuSans-16" transform="translate(719.421875 0)"/>
    <use xlink:href="#DejaVuSans-3" transform="translate(783.046875 0)"/>
    <use xlink:href="#DejaVuSans-4c" transform="translate(814.828125 0)"/>
    <use xlink:href="#DejaVuSans-47" transform="translate(842.609375 0)"/>
    <use xlink:href="#DejaVuSans-48" transform="translate(906.09375 0)"/>
    <use xlink:href="#DejaVuSans-51" transform="translate(967.625 0)"/>
    <use xlink:href="#DejaVuSans-57" transform="translate(1031 0)"/>
    <use xlink:href="#DejaVuSans-4c" transform="translate(1070.203125 0)"/>
    <use xlink:href="#DejaVuSans-49" transform="translate(1097.984375 0)"/>
    <use xlink:href="#DejaVuSans-5c" transform="translate(1131.4375 0)"/>
    <use xlink:href="#DejaVuSans-3" transform="translate(1190.625 0)"/>
    <use xlink:href="#DejaVuSans-5a" transform="translate(1222.40625 0)"/>
    <use xlink:href="#DejaVuSans-44" transform="translate(1304.1875 0)"/>
    <use xlink:href="#DejaVuSans-59" transform="translate(1365.46875 0)"/>
    <use xlink:href="#DejaVuSans-48" transform="translate(1424.65625 0)"/>
    <use xlink:href="#DejaVuSans-56" transform="translate(1486.1875 0)"/>
    <use xlink:href="#DejaVuSans-11" transform="translate(1538.28125 0)"/>
   </g>
  </g>
  <g id="legend_1">
   <g id="line2d_33">
    <defs>
     <path id="m541e7e5a43" d="M 0 4
C 1.060812 4 2.078319 3.578535 2.828427 2.828427
C 3.578535 2.078319 4 1.060812 4 0
C 4 -1.060812 3.578535 -2.078319 2.828427 -2.828427
C 2.078319 -3.578535 1.060812 -4 0 -4
C -1.060812 -4 -2.078319 -3.578535 -2.828427 -2.828427
C -3.578535 -2.078319 -4 -1.060812 -4 0
C -4 1.060812 -3.578535 2.078319 -2.828427 2.828427
C -2.078319 3.578535 -1.060812 4 0 4
z
" style="stroke: #17212b"/>
    </defs>
    <g>
     <use xlink:href="#m541e7e5a43" x="166.810781" y="40.012594" style="fill: #0067a5; stroke: #17212b"/>
    </g>
   </g>
   <g id="text_58">
    <!-- Deepseek (circle) -->
    <g transform="translate(183.010781 43.162594) scale(0.09 -0.09)">
     <defs>
      <path id="DejaVuSans-27" d="M 1259 4147
L 1259 519
L 2022 519
Q 2988 519 3436 956
Q 3884 1394 3884 2338
Q 3884 3275 3436 3711
Q 2988 4147 2022 4147
L 1259 4147
z
M 628 4666
L 1925 4666
Q 3281 4666 3915 4102
Q 4550 3538 4550 2338
Q 4550 1131 3912 565
Q 3275 0 1925 0
L 628 0
L 628 4666
z
" transform="scale(0.015625)"/>
      <path id="DejaVuSans-b" d="M 1984 4856
Q 1566 4138 1362 3434
Q 1159 2731 1159 2009
Q 1159 1288 1364 580
Q 1569 -128 1984 -844
L 1484 -844
Q 1016 -109 783 600
Q 550 1309 550 2009
Q 550 2706 781 3412
Q 1013 4119 1484 4856
L 1984 4856
z
" transform="scale(0.015625)"/>
      <path id="DejaVuSans-c" d="M 513 4856
L 1013 4856
Q 1481 4119 1714 3412
Q 1947 2706 1947 2009
Q 1947 1309 1714 600
Q 1481 -109 1013 -844
L 513 -844
Q 928 -128 1133 580
Q 1338 1288 1338 2009
Q 1338 2731 1133 3434
Q 928 4138 513 4856
z
" transform="scale(0.015625)"/>
     </defs>
     <use xlink:href="#DejaVuSans-27"/>
     <use xlink:href="#DejaVuSans-48" transform="translate(77 0)"/>
     <use xlink:href="#DejaVuSans-48" transform="translate(138.53125 0)"/>
     <use xlink:href="#DejaVuSans-53" transform="translate(200.0625 0)"/>
     <use xlink:href="#DejaVuSans-56" transform="translate(263.546875 0)"/>
     <use xlink:href="#DejaVuSans-48" transform="translate(315.640625 0)"/>
     <use xlink:href="#DejaVuSans-48" transform="translate(377.171875 0)"/>
     <use xlink:href="#DejaVuSans-4e" transform="translate(438.703125 0)"/>
     <use xlink:href="#DejaVuSans-3" transform="translate(496.609375 0)"/>
     <use xlink:href="#DejaVuSans-b" transform="translate(528.390625 0)"/>
     <use xlink:href="#DejaVuSans-46" transform="translate(567.40625 0)"/>
     <use xlink:href="#DejaVuSans-4c" transform="translate(622.390625 0)"/>
     <use xlink:href="#DejaVuSans-55" transform="translate(650.171875 0)"/>
     <use xlink:href="#DejaVuSans-46" transform="translate(689.078125 0)"/>
     <use xlink:href="#DejaVuSans-4f" transform="translate(744.0625 0)"/>
     <use xlink:href="#DejaVuSans-48" transform="translate(771.84375 0)"/>
     <use xlink:href="#DejaVuSans-c" transform="translate(833.375 0)"/>
    </g>
   </g>
   <g id="line2d_34">
    <defs>
     <path id="m50357bbc63" d="M -4 4
L 4 4
L 4 -4
L -4 -4
z
" style="stroke: #17212b; stroke-linejoin: miter"/>
    </defs>
    <g>
     <use xlink:href="#m50357bbc63" x="288.525937" y="40.012594" style="fill: #d55e00; stroke: #17212b; stroke-linejoin: miter"/>
    </g>
   </g>
   <g id="text_59">
    <!-- Mimo (square) -->
    <g transform="translate(304.725937 43.162594) scale(0.09 -0.09)">
     <defs>
      <path id="DejaVuSans-50" d="M 3328 2828
Q 3544 3216 3844 3400
Q 4144 3584 4550 3584
Q 5097 3584 5394 3201
Q 5691 2819 5691 2113
L 5691 0
L 5113 0
L 5113 2094
Q 5113 2597 4934 2840
Q 4756 3084 4391 3084
Q 3944 3084 3684 2787
Q 3425 2491 3425 1978
L 3425 0
L 2847 0
L 2847 2094
Q 2847 2600 2669 2842
Q 2491 3084 2119 3084
Q 1678 3084 1418 2786
Q 1159 2488 1159 1978
L 1159 0
L 581 0
L 581 3500
L 1159 3500
L 1159 2956
Q 1356 3278 1631 3431
Q 1906 3584 2284 3584
Q 2666 3584 2933 3390
Q 3200 3197 3328 2828
z
" transform="scale(0.015625)"/>
      <path id="DejaVuSans-54" d="M 947 1747
Q 947 1113 1208 752
Q 1469 391 1925 391
Q 2381 391 2643 752
Q 2906 1113 2906 1747
Q 2906 2381 2643 2742
Q 2381 3103 1925 3103
Q 1469 3103 1208 2742
Q 947 2381 947 1747
z
M 2906 525
Q 2725 213 2448 61
Q 2172 -91 1784 -91
Q 1150 -91 751 415
Q 353 922 353 1747
Q 353 2572 751 3078
Q 1150 3584 1784 3584
Q 2172 3584 2448 3432
Q 2725 3281 2906 2969
L 2906 3500
L 3481 3500
L 3481 -1331
L 2906 -1331
L 2906 525
z
" transform="scale(0.015625)"/>
     </defs>
     <use xlink:href="#DejaVuSans-30"/>
     <use xlink:href="#DejaVuSans-4c" transform="translate(86.28125 0)"/>
     <use xlink:href="#DejaVuSans-50" transform="translate(114.0625 0)"/>
     <use xlink:href="#DejaVuSans-52" transform="translate(211.46875 0)"/>
     <use xlink:href="#DejaVuSans-3" transform="translate(272.65625 0)"/>
     <use xlink:href="#DejaVuSans-b" transform="translate(304.4375 0)"/>
     <use xlink:href="#DejaVuSans-56" transform="translate(343.453125 0)"/>
     <use xlink:href="#DejaVuSans-54" transform="translate(395.546875 0)"/>
     <use xlink:href="#DejaVuSans-58" transform="translate(459.03125 0)"/>
     <use xlink:href="#DejaVuSans-44" transform="translate(522.40625 0)"/>
     <use xlink:href="#DejaVuSans-55" transform="translate(583.6875 0)"/>
     <use xlink:href="#DejaVuSans-48" transform="translate(622.59375 0)"/>
     <use xlink:href="#DejaVuSans-c" transform="translate(684.125 0)"/>
    </g>
   </g>
  </g>
 </g>
 <defs>
  <clipPath id="p7f1770445d">
   <rect x="52.697422" y="90.243047" width="467.792266" height="159.505699"/>
  </clipPath>
  <clipPath id="p47fa916599">
   <rect x="52.697422" y="263.578082" width="467.792266" height="159.505699"/>
  </clipPath>
 </defs>
</svg>
