<?xml version="1.0" encoding="utf-8" standalone="no"?>
<!DOCTYPE svg PUBLIC "-//W3C//DTD SVG 1.1//EN"
  "http://www.w3.org/Graphics/SVG/1.1/DTD/svg11.dtd">
<svg xmlns:xlink="http://www.w3.org/1999/xlink" width="486.291094pt" height="285.598125pt" viewBox="0 0 486.291094 285.598125" xmlns="http://www.w3.org/2000/svg" version="1.1">
 <metadata>
  <rdf:RDF xmlns:dc="http://purl.org/dc/elements/1.1/" xmlns:cc="http://creativecommons.org/ns#" xmlns:rdf="http://www.w3.org/1999/02/22-rdf-syntax-ns#">
   <cc:Work>
    <dc:type rdf:resource="http://purl.org/dc/dcmitype/StillImage"/>
    <dc:format>image/svg+xml</dc:format>
    <dc:creator>
     <cc:Agent>
      <dc:title>lda.chat thesis evaluation</dc:title>
     </cc:Agent>
    </dc:creator>
   </cc:Work>
  </rdf:RDF>
 </metadata>
 <defs>
  <style type="text/css">*{stroke-linejoin: round; stroke-linecap: butt}</style>
 </defs>
 <g id="figure_1">
  <g id="patch_1">
   <path d="M 0 285.598125
L 486.291094 285.598125
L 486.291094 0
L 0 0
z
" style="fill: #ffffff"/>
  </g>
  <g id="axes_1">
   <g id="patch_2">
    <path d="M 40.093203 260.958125
L 477.651094 260.958125
L 477.651094 23.758125
L 40.093203 23.758125
z
" style="fill: #f3f6f7"/>
   </g>
   <g id="patch_3">
    <path d="M 59.982198 260.958125
L 154.11332 260.958125
L 154.11332 60.250433
L 59.982198 60.250433
z
" clip-path="url(#p75879298b4)" style="fill: #00796b; stroke: #263238; stroke-width: 0.55; stroke-linejoin: miter"/>
   </g>
   <g id="patch_4">
    <path d="M 211.806588 260.958125
L 305.937709 260.958125
L 305.937709 114.988894
L 211.806588 114.988894
z
" clip-path="url(#p75879298b4)" style="fill: #00796b; stroke: #263238; stroke-width: 0.55; stroke-linejoin: miter"/>
   </g>
   <g id="patch_5">
    <path d="M 363.630977 260.958125
L 457.762099 260.958125
L 457.762099 114.988894
L 363.630977 114.988894
z
" clip-path="url(#p75879298b4)" style="fill: #00796b; stroke: #263238; stroke-width: 0.55; stroke-linejoin: miter"/>
   </g>
   <g id="patch_6">
    <path d="M 59.982198 60.250433
L 154.11332 60.250433
L 154.11332 42.004279
L 59.982198 42.004279
z
" clip-path="url(#p75879298b4)" style="fill: url(#h42d7399d3a); stroke: #263238; stroke-width: 0.55; stroke-linejoin: miter"/>
   </g>
   <g id="patch_7">
    <path d="M 211.806588 114.988894
L 305.937709 114.988894
L 305.937709 60.250433
L 211.806588 60.250433
z
" clip-path="url(#p75879298b4)" style="fill: url(#h42d7399d3a); stroke: #263238; stroke-width: 0.55; stroke-linejoin: miter"/>
   </g>
   <g id="patch_8">
    <path d="M 363.630977 114.988894
L 457.762099 114.988894
L 457.762099 42.004279
L 363.630977 42.004279
z
" clip-path="url(#p75879298b4)" style="fill: url(#h42d7399d3a); stroke: #263238; stroke-width: 0.55; stroke-linejoin: miter"/>
   </g>
   <g id="patch_9">
    <path d="M 59.982198 42.004279
L 154.11332 42.004279
L 154.11332 42.004279
L 59.982198 42.004279
z
" clip-path="url(#p75879298b4)" style="fill: url(#h7342ca18d5); stroke: #263238; stroke-width: 0.55; stroke-linejoin: miter"/>
   </g>
   <g id="patch_10">
    <path d="M 211.806588 60.250433
L 305.937709 60.250433
L 305.937709 42.004279
L 211.806588 42.004279
z
" clip-path="url(#p75879298b4)" style="fill: url(#h7342ca18d5); stroke: #263238; stroke-width: 0.55; stroke-linejoin: miter"/>
   </g>
   <g id="patch_11">
    <path d="M 363.630977 42.004279
L 457.762099 42.004279
L 457.762099 42.004279
L 363.630977 42.004279
z
" clip-path="url(#p75879298b4)" style="fill: url(#h7342ca18d5); stroke: #263238; stroke-width: 0.55; stroke-linejoin: miter"/>
   </g>
   <g id="matplotlib.axis_1">
    <g id="xtick_1">
     <g id="line2d_1">
      <defs>
       <path id="m2a50e1e0c6" d="M 0 0
L 0 3.5
" style="stroke: #000000; stroke-width: 0.8"/>
      </defs>
      <g>
       <use xlink:href="#m2a50e1e0c6" x="107.047759" y="260.958125" style="stroke: #000000; stroke-width: 0.8"/>
      </g>
     </g>
     <g id="text_1">
      <!-- Wave 1 -->
      <g transform="translate(90.402681 274.796016) scale(0.09 -0.09)">
       <defs>
        <path id="DejaVuSans-3a" d="M 213 4666
L 850 4666
L 1831 722
L 2809 4666
L 3519 4666
L 4500 722
L 5478 4666
L 6119 4666
L 4947 0
L 4153 0
L 3169 4050
L 2175 0
L 1381 0
L 213 4666
z
" transform="scale(0.015625)"/>
        <path id="DejaVuSans-44" d="M 2194 1759
Q 1497 1759 1228 1600
Q 959 1441 959 1056
Q 959 750 1161 570
Q 1363 391 1709 391
Q 2188 391 2477 730
Q 2766 1069 2766 1631
L 2766 1759
L 2194 1759
z
M 3341 1997
L 3341 0
L 2766 0
L 2766 531
Q 2569 213 2275 61
Q 1981 -91 1556 -91
Q 1019 -91 701 211
Q 384 513 384 1019
Q 384 1609 779 1909
Q 1175 2209 1959 2209
L 2766 2209
L 2766 2266
Q 2766 2663 2505 2880
Q 2244 3097 1772 3097
Q 1472 3097 1187 3025
Q 903 2953 641 2809
L 641 3341
Q 956 3463 1253 3523
Q 1550 3584 1831 3584
Q 2591 3584 2966 3190
Q 3341 2797 3341 1997
z
" transform="scale(0.015625)"/>
        <path id="DejaVuSans-59" d="M 191 3500
L 800 3500
L 1894 563
L 2988 3500
L 3597 3500
L 2284 0
L 1503 0
L 191 3500
z
" transform="scale(0.015625)"/>
        <path id="DejaVuSans-48" d="M 3597 1894
L 3597 1613
L 953 1613
Q 991 1019 1311 708
Q 1631 397 2203 397
Q 2534 397 2845 478
Q 3156 559 3463 722
L 3463 178
Q 3153 47 2828 -22
Q 2503 -91 2169 -91
Q 1331 -91 842 396
Q 353 884 353 1716
Q 353 2575 817 3079
Q 1281 3584 2069 3584
Q 2775 3584 3186 3129
Q 3597 2675 3597 1894
z
M 3022 2063
Q 3016 2534 2758 2815
Q 2500 3097 2075 3097
Q 1594 3097 1305 2825
Q 1016 2553 972 2059
L 3022 2063
z
" transform="scale(0.015625)"/>
        <path id="DejaVuSans-3" transform="scale(0.015625)"/>
        <path id="DejaVuSans-14" d="M 794 531
L 1825 531
L 1825 4091
L 703 3866
L 703 4441
L 1819 4666
L 2450 4666
L 2450 531
L 3481 531
L 3481 0
L 794 0
L 794 531
z
" transform="scale(0.015625)"/>
       </defs>
       <use xlink:href="#DejaVuSans-3a"/>
       <use xlink:href="#DejaVuSans-44" transform="translate(92.484375 0)"/>
       <use xlink:href="#DejaVuSans-59" transform="translate(153.765625 0)"/>
       <use xlink:href="#DejaVuSans-48" transform="translate(212.953125 0)"/>
       <use xlink:href="#DejaVuSans-3" transform="translate(274.484375 0)"/>
       <use xlink:href="#DejaVuSans-14" transform="translate(306.265625 0)"/>
      </g>
     </g>
    </g>
    <g id="xtick_2">
     <g id="line2d_2">
      <g>
       <use xlink:href="#m2a50e1e0c6" x="258.872148" y="260.958125" style="stroke: #000000; stroke-width: 0.8"/>
      </g>
     </g>
     <g id="text_2">
      <!-- Wave 2 -->
      <g transform="translate(242.22707 274.796016) scale(0.09 -0.09)">
       <defs>
        <path id="DejaVuSans-15" d="M 1228 531
L 3431 531
L 3431 0
L 469 0
L 469 531
Q 828 903 1448 1529
Q 2069 2156 2228 2338
Q 2531 2678 2651 2914
Q 2772 3150 2772 3378
Q 2772 3750 2511 3984
Q 2250 4219 1831 4219
Q 1534 4219 1204 4116
Q 875 4013 500 3803
L 500 4441
Q 881 4594 1212 4672
Q 1544 4750 1819 4750
Q 2544 4750 2975 4387
Q 3406 4025 3406 3419
Q 3406 3131 3298 2873
Q 3191 2616 2906 2266
Q 2828 2175 2409 1742
Q 1991 1309 1228 531
z
" transform="scale(0.015625)"/>
       </defs>
       <use xlink:href="#DejaVuSans-3a"/>
       <use xlink:href="#DejaVuSans-44" transform="translate(92.484375 0)"/>
       <use xlink:href="#DejaVuSans-59" transform="translate(153.765625 0)"/>
       <use xlink:href="#DejaVuSans-48" transform="translate(212.953125 0)"/>
       <use xlink:href="#DejaVuSans-3" transform="translate(274.484375 0)"/>
       <use xlink:href="#DejaVuSans-15" transform="translate(306.265625 0)"/>
      </g>
     </g>
    </g>
    <g id="xtick_3">
     <g id="line2d_3">
      <g>
       <use xlink:href="#m2a50e1e0c6" x="410.696538" y="260.958125" style="stroke: #000000; stroke-width: 0.8"/>
      </g>
     </g>
     <g id="text_3">
      <!-- Wave 3 -->
      <g transform="translate(394.05146 274.796016) scale(0.09 -0.09)">
       <defs>
        <path id="DejaVuSans-16" d="M 2597 2516
Q 3050 2419 3304 2112
Q 3559 1806 3559 1356
Q 3559 666 3084 287
Q 2609 -91 1734 -91
Q 1441 -91 1130 -33
Q 819 25 488 141
L 488 750
Q 750 597 1062 519
Q 1375 441 1716 441
Q 2309 441 2620 675
Q 2931 909 2931 1356
Q 2931 1769 2642 2001
Q 2353 2234 1838 2234
L 1294 2234
L 1294 2753
L 1863 2753
Q 2328 2753 2575 2939
Q 2822 3125 2822 3475
Q 2822 3834 2567 4026
Q 2313 4219 1838 4219
Q 1578 4219 1281 4162
Q 984 4106 628 3988
L 628 4550
Q 988 4650 1302 4700
Q 1616 4750 1894 4750
Q 2613 4750 3031 4423
Q 3450 4097 3450 3541
Q 3450 3153 3228 2886
Q 3006 2619 2597 2516
z
" transform="scale(0.015625)"/>
       </defs>
       <use xlink:href="#DejaVuSans-3a"/>
       <use xlink:href="#DejaVuSans-44" transform="translate(92.484375 0)"/>
       <use xlink:href="#DejaVuSans-59" transform="translate(153.765625 0)"/>
       <use xlink:href="#DejaVuSans-48" transform="translate(212.953125 0)"/>
       <use xlink:href="#DejaVuSans-3" transform="translate(274.484375 0)"/>
       <use xlink:href="#DejaVuSans-16" transform="translate(306.265625 0)"/>
      </g>
     </g>
    </g>
   </g>
   <g id="matplotlib.axis_2">
    <g id="ytick_1">
     <g id="line2d_4">
      <path d="M 40.093203 260.958125
L 477.651094 260.958125
" clip-path="url(#p75879298b4)" style="fill: none; stroke: #c9d1d5; stroke-width: 0.6; stroke-linecap: square"/>
     </g>
     <g id="line2d_5">
      <defs>
       <path id="m9c62cfc23c" d="M 0 0
L -3.5 0
" style="stroke: #000000; stroke-width: 0.8"/>
      </defs>
      <g>
       <use xlink:href="#m9c62cfc23c" x="40.093203" y="260.958125" style="stroke: #000000; stroke-width: 0.8"/>
      </g>
     </g>
     <g id="text_4">
      <!-- 0 -->
      <g transform="translate(27.366953 264.37707) scale(0.09 -0.09)">
       <defs>
        <path id="DejaVuSans-13" d="M 2034 4250
Q 1547 4250 1301 3770
Q 1056 3291 1056 2328
Q 1056 1369 1301 889
Q 1547 409 2034 409
Q 2525 409 2770 889
Q 3016 1369 3016 2328
Q 3016 3291 2770 3770
Q 2525 4250 2034 4250
z
M 2034 4750
Q 2819 4750 3233 4129
Q 3647 3509 3647 2328
Q 3647 1150 3233 529
Q 2819 -91 2034 -91
Q 1250 -91 836 529
Q 422 1150 422 2328
Q 422 3509 836 4129
Q 1250 4750 2034 4750
z
" transform="scale(0.015625)"/>
       </defs>
       <use xlink:href="#DejaVuSans-13"/>
      </g>
     </g>
    </g>
    <g id="ytick_2">
     <g id="line2d_6">
      <path d="M 40.093203 224.465817
L 477.651094 224.465817
" clip-path="url(#p75879298b4)" style="fill: none; stroke: #c9d1d5; stroke-width: 0.6; stroke-linecap: square"/>
     </g>
     <g id="line2d_7">
      <g>
       <use xlink:href="#m9c62cfc23c" x="40.093203" y="224.465817" style="stroke: #000000; stroke-width: 0.8"/>
      </g>
     </g>
     <g id="text_5">
      <!-- 2 -->
      <g transform="translate(27.366953 227.884763) scale(0.09 -0.09)">
       <use xlink:href="#DejaVuSans-15"/>
      </g>
     </g>
    </g>
    <g id="ytick_3">
     <g id="line2d_8">
      <path d="M 40.093203 187.97351
L 477.651094 187.97351
" clip-path="url(#p75879298b4)" style="fill: none; stroke: #c9d1d5; stroke-width: 0.6; stroke-linecap: square"/>
     </g>
     <g id="line2d_9">
      <g>
       <use xlink:href="#m9c62cfc23c" x="40.093203" y="187.97351" style="stroke: #000000; stroke-width: 0.8"/>
      </g>
     </g>
     <g id="text_6">
      <!-- 4 -->
      <g transform="translate(27.366953 191.392455) scale(0.09 -0.09)">
       <defs>
        <path id="DejaVuSans-17" d="M 2419 4116
L 825 1625
L 2419 1625
L 2419 4116
z
M 2253 4666
L 3047 4666
L 3047 1625
L 3713 1625
L 3713 1100
L 3047 1100
L 3047 0
L 2419 0
L 2419 1100
L 313 1100
L 313 1709
L 2253 4666
z
" transform="scale(0.015625)"/>
       </defs>
       <use xlink:href="#DejaVuSans-17"/>
      </g>
     </g>
    </g>
    <g id="ytick_4">
     <g id="line2d_10">
      <path d="M 40.093203 151.481202
L 477.651094 151.481202
" clip-path="url(#p75879298b4)" style="fill: none; stroke: #c9d1d5; stroke-width: 0.6; stroke-linecap: square"/>
     </g>
     <g id="line2d_11">
      <g>
       <use xlink:href="#m9c62cfc23c" x="40.093203" y="151.481202" style="stroke: #000000; stroke-width: 0.8"/>
      </g>
     </g>
     <g id="text_7">
      <!-- 6 -->
      <g transform="translate(27.366953 154.900147) scale(0.09 -0.09)">
       <defs>
        <path id="DejaVuSans-19" d="M 2113 2584
Q 1688 2584 1439 2293
Q 1191 2003 1191 1497
Q 1191 994 1439 701
Q 1688 409 2113 409
Q 2538 409 2786 701
Q 3034 994 3034 1497
Q 3034 2003 2786 2293
Q 2538 2584 2113 2584
z
M 3366 4563
L 3366 3988
Q 3128 4100 2886 4159
Q 2644 4219 2406 4219
Q 1781 4219 1451 3797
Q 1122 3375 1075 2522
Q 1259 2794 1537 2939
Q 1816 3084 2150 3084
Q 2853 3084 3261 2657
Q 3669 2231 3669 1497
Q 3669 778 3244 343
Q 2819 -91 2113 -91
Q 1303 -91 875 529
Q 447 1150 447 2328
Q 447 3434 972 4092
Q 1497 4750 2381 4750
Q 2619 4750 2861 4703
Q 3103 4656 3366 4563
z
" transform="scale(0.015625)"/>
       </defs>
       <use xlink:href="#DejaVuSans-19"/>
      </g>
     </g>
    </g>
    <g id="ytick_5">
     <g id="line2d_12">
      <path d="M 40.093203 114.988894
L 477.651094 114.988894
" clip-path="url(#p75879298b4)" style="fill: none; stroke: #c9d1d5; stroke-width: 0.6; stroke-linecap: square"/>
     </g>
     <g id="line2d_13">
      <g>
       <use xlink:href="#m9c62cfc23c" x="40.093203" y="114.988894" style="stroke: #000000; stroke-width: 0.8"/>
      </g>
     </g>
     <g id="text_8">
      <!-- 8 -->
      <g transform="translate(27.366953 118.40784) scale(0.09 -0.09)">
       <defs>
        <path id="DejaVuSans-1b" d="M 2034 2216
Q 1584 2216 1326 1975
Q 1069 1734 1069 1313
Q 1069 891 1326 650
Q 1584 409 2034 409
Q 2484 409 2743 651
Q 3003 894 3003 1313
Q 3003 1734 2745 1975
Q 2488 2216 2034 2216
z
M 1403 2484
Q 997 2584 770 2862
Q 544 3141 544 3541
Q 544 4100 942 4425
Q 1341 4750 2034 4750
Q 2731 4750 3128 4425
Q 3525 4100 3525 3541
Q 3525 3141 3298 2862
Q 3072 2584 2669 2484
Q 3125 2378 3379 2068
Q 3634 1759 3634 1313
Q 3634 634 3220 271
Q 2806 -91 2034 -91
Q 1263 -91 848 271
Q 434 634 434 1313
Q 434 1759 690 2068
Q 947 2378 1403 2484
z
M 1172 3481
Q 1172 3119 1398 2916
Q 1625 2713 2034 2713
Q 2441 2713 2670 2916
Q 2900 3119 2900 3481
Q 2900 3844 2670 4047
Q 2441 4250 2034 4250
Q 1625 4250 1398 4047
Q 1172 3844 1172 3481
z
" transform="scale(0.015625)"/>
       </defs>
       <use xlink:href="#DejaVuSans-1b"/>
      </g>
     </g>
    </g>
    <g id="ytick_6">
     <g id="line2d_14">
      <path d="M 40.093203 78.496587
L 477.651094 78.496587
" clip-path="url(#p75879298b4)" style="fill: none; stroke: #c9d1d5; stroke-width: 0.6; stroke-linecap: square"/>
     </g>
     <g id="line2d_15">
      <g>
       <use xlink:href="#m9c62cfc23c" x="40.093203" y="78.496587" style="stroke: #000000; stroke-width: 0.8"/>
      </g>
     </g>
     <g id="text_9">
      <!-- 10 -->
      <g transform="translate(21.640703 81.915532) scale(0.09 -0.09)">
       <use xlink:href="#DejaVuSans-14"/>
       <use xlink:href="#DejaVuSans-13" transform="translate(63.625 0)"/>
      </g>
     </g>
    </g>
    <g id="ytick_7">
     <g id="line2d_16">
      <path d="M 40.093203 42.004279
L 477.651094 42.004279
" clip-path="url(#p75879298b4)" style="fill: none; stroke: #c9d1d5; stroke-width: 0.6; stroke-linecap: square"/>
     </g>
     <g id="line2d_17">
      <g>
       <use xlink:href="#m9c62cfc23c" x="40.093203" y="42.004279" style="stroke: #000000; stroke-width: 0.8"/>
      </g>
     </g>
     <g id="text_10">
      <!-- 12 -->
      <g transform="translate(21.640703 45.423224) scale(0.09 -0.09)">
       <use xlink:href="#DejaVuSans-14"/>
       <use xlink:href="#DejaVuSans-15" transform="translate(63.625 0)"/>
      </g>
     </g>
    </g>
    <g id="text_11">
     <!-- Manually audited trials -->
     <g style="fill: #28323c" transform="translate(15.478594 193.806484) rotate(-90) scale(0.09 -0.09)">
      <defs>
       <path id="DejaVuSans-30" d="M 628 4666
L 1569 4666
L 2759 1491
L 3956 4666
L 4897 4666
L 4897 0
L 4281 0
L 4281 4097
L 3078 897
L 2444 897
L 1241 4097
L 1241 0
L 628 0
L 628 4666
z
" transform="scale(0.015625)"/>
       <path id="DejaVuSans-51" d="M 3513 2113
L 3513 0
L 2938 0
L 2938 2094
Q 2938 2591 2744 2837
Q 2550 3084 2163 3084
Q 1697 3084 1428 2787
Q 1159 2491 1159 1978
L 1159 0
L 581 0
L 581 3500
L 1159 3500
L 1159 2956
Q 1366 3272 1645 3428
Q 1925 3584 2291 3584
Q 2894 3584 3203 3211
Q 3513 2838 3513 2113
z
" transform="scale(0.015625)"/>
       <path id="DejaVuSans-58" d="M 544 1381
L 544 3500
L 1119 3500
L 1119 1403
Q 1119 906 1312 657
Q 1506 409 1894 409
Q 2359 409 2629 706
Q 2900 1003 2900 1516
L 2900 3500
L 3475 3500
L 3475 0
L 2900 0
L 2900 538
Q 2691 219 2414 64
Q 2138 -91 1772 -91
Q 1169 -91 856 284
Q 544 659 544 1381
z
M 1991 3584
L 1991 3584
z
" transform="scale(0.015625)"/>
       <path id="DejaVuSans-4f" d="M 603 4863
L 1178 4863
L 1178 0
L 603 0
L 603 4863
z
" transform="scale(0.015625)"/>
       <path id="DejaVuSans-5c" d="M 2059 -325
Q 1816 -950 1584 -1140
Q 1353 -1331 966 -1331
L 506 -1331
L 506 -850
L 844 -850
Q 1081 -850 1212 -737
Q 1344 -625 1503 -206
L 1606 56
L 191 3500
L 800 3500
L 1894 763
L 2988 3500
L 3597 3500
L 2059 -325
z
" transform="scale(0.015625)"/>
       <path id="DejaVuSans-47" d="M 2906 2969
L 2906 4863
L 3481 4863
L 3481 0
L 2906 0
L 2906 525
Q 2725 213 2448 61
Q 2172 -91 1784 -91
Q 1150 -91 751 415
Q 353 922 353 1747
Q 353 2572 751 3078
Q 1150 3584 1784 3584
Q 2172 3584 2448 3432
Q 2725 3281 2906 2969
z
M 947 1747
Q 947 1113 1208 752
Q 1469 391 1925 391
Q 2381 391 2643 752
Q 2906 1113 2906 1747
Q 2906 2381 2643 2742
Q 2381 3103 1925 3103
Q 1469 3103 1208 2742
Q 947 2381 947 1747
z
" transform="scale(0.015625)"/>
       <path id="DejaVuSans-4c" d="M 603 3500
L 1178 3500
L 1178 0
L 603 0
L 603 3500
z
M 603 4863
L 1178 4863
L 1178 4134
L 603 4134
L 603 4863
z
" transform="scale(0.015625)"/>
       <path id="DejaVuSans-57" d="M 1172 4494
L 1172 3500
L 2356 3500
L 2356 3053
L 1172 3053
L 1172 1153
Q 1172 725 1289 603
Q 1406 481 1766 481
L 2356 481
L 2356 0
L 1766 0
Q 1100 0 847 248
Q 594 497 594 1153
L 594 3053
L 172 3053
L 172 3500
L 594 3500
L 594 4494
L 1172 4494
z
" transform="scale(0.015625)"/>
       <path id="DejaVuSans-55" d="M 2631 2963
Q 2534 3019 2420 3045
Q 2306 3072 2169 3072
Q 1681 3072 1420 2755
Q 1159 2438 1159 1844
L 1159 0
L 581 0
L 581 3500
L 1159 3500
L 1159 2956
Q 1341 3275 1631 3429
Q 1922 3584 2338 3584
Q 2397 3584 2469 3576
Q 2541 3569 2628 3553
L 2631 2963
z
" transform="scale(0.015625)"/>
       <path id="DejaVuSans-56" d="M 2834 3397
L 2834 2853
Q 2591 2978 2328 3040
Q 2066 3103 1784 3103
Q 1356 3103 1142 2972
Q 928 2841 928 2578
Q 928 2378 1081 2264
Q 1234 2150 1697 2047
L 1894 2003
Q 2506 1872 2764 1633
Q 3022 1394 3022 966
Q 3022 478 2636 193
Q 2250 -91 1575 -91
Q 1294 -91 989 -36
Q 684 19 347 128
L 347 722
Q 666 556 975 473
Q 1284 391 1588 391
Q 1994 391 2212 530
Q 2431 669 2431 922
Q 2431 1156 2273 1281
Q 2116 1406 1581 1522
L 1381 1569
Q 847 1681 609 1914
Q 372 2147 372 2553
Q 372 3047 722 3315
Q 1072 3584 1716 3584
Q 2034 3584 2315 3537
Q 2597 3491 2834 3397
z
" transform="scale(0.015625)"/>
      </defs>
      <use xlink:href="#DejaVuSans-30"/>
      <use xlink:href="#DejaVuSans-44" transform="translate(86.28125 0)"/>
      <use xlink:href="#DejaVuSans-51" transform="translate(147.5625 0)"/>
      <use xlink:href="#DejaVuSans-58" transform="translate(210.9375 0)"/>
      <use xlink:href="#DejaVuSans-44" transform="translate(274.3125 0)"/>
      <use xlink:href="#DejaVuSans-4f" transform="translate(335.59375 0)"/>
      <use xlink:href="#DejaVuSans-4f" transform="translate(363.375 0)"/>
      <use xlink:href="#DejaVuSans-5c" transform="translate(391.15625 0)"/>
      <use xlink:href="#DejaVuSans-3" transform="translate(450.34375 0)"/>
      <use xlink:href="#DejaVuSans-44" transform="translate(482.125 0)"/>
      <use xlink:href="#DejaVuSans-58" transform="translate(543.40625 0)"/>
      <use xlink:href="#DejaVuSans-47" transform="translate(606.78125 0)"/>
      <use xlink:href="#DejaVuSans-4c" transform="translate(670.265625 0)"/>
      <use xlink:href="#DejaVuSans-57" transform="translate(698.046875 0)"/>
      <use xlink:href="#DejaVuSans-48" transform="translate(737.25 0)"/>
      <use xlink:href="#DejaVuSans-47" transform="translate(798.78125 0)"/>
      <use xlink:href="#DejaVuSans-3" transform="translate(862.265625 0)"/>
      <use xlink:href="#DejaVuSans-57" transform="translate(894.046875 0)"/>
      <use xlink:href="#DejaVuSans-55" transform="translate(933.25 0)"/>
      <use xlink:href="#DejaVuSans-4c" transform="translate(974.359375 0)"/>
      <use xlink:href="#DejaVuSans-44" transform="translate(1002.140625 0)"/>
      <use xlink:href="#DejaVuSans-4f" transform="translate(1063.421875 0)"/>
      <use xlink:href="#DejaVuSans-56" transform="translate(1091.203125 0)"/>
     </g>
    </g>
   </g>
   <g id="patch_12">
    <path d="M 40.093203 260.958125
L 40.093203 23.758125
" style="fill: none; stroke: #8b949e; stroke-width: 0.8; stroke-linejoin: miter; stroke-linecap: square"/>
   </g>
   <g id="patch_13">
    <path d="M 40.093203 260.958125
L 477.651094 260.958125
" style="fill: none; stroke: #8b949e; stroke-width: 0.8; stroke-linejoin: miter; stroke-linecap: square"/>
   </g>
   <g id="text_12">
    <!-- 11 -->
    <g style="fill: #ffffff" transform="translate(100.785728 162.942169) scale(0.09 -0.09)">
     <defs>
      <path id="DejaVuSans-Bold-14" d="M 750 831
L 1813 831
L 1813 3847
L 722 3622
L 722 4441
L 1806 4666
L 2950 4666
L 2950 831
L 4013 831
L 4013 0
L 750 0
L 750 831
z
" transform="scale(0.015625)"/>
     </defs>
     <use xlink:href="#DejaVuSans-Bold-14"/>
     <use xlink:href="#DejaVuSans-Bold-14" transform="translate(69.578125 0)"/>
    </g>
   </g>
   <g id="text_13">
    <!-- 8 -->
    <g style="fill: #ffffff" transform="translate(255.741133 190.3114) scale(0.09 -0.09)">
     <defs>
      <path id="DejaVuSans-Bold-1b" d="M 2228 2088
Q 1891 2088 1709 1903
Q 1528 1719 1528 1375
Q 1528 1031 1709 848
Q 1891 666 2228 666
Q 2563 666 2741 848
Q 2919 1031 2919 1375
Q 2919 1722 2741 1905
Q 2563 2088 2228 2088
z
M 1350 2484
Q 925 2613 709 2878
Q 494 3144 494 3541
Q 494 4131 934 4440
Q 1375 4750 2228 4750
Q 3075 4750 3515 4442
Q 3956 4134 3956 3541
Q 3956 3144 3739 2878
Q 3522 2613 3097 2484
Q 3572 2353 3814 2058
Q 4056 1763 4056 1313
Q 4056 619 3595 264
Q 3134 -91 2228 -91
Q 1319 -91 855 264
Q 391 619 391 1313
Q 391 1763 633 2058
Q 875 2353 1350 2484
z
M 1631 3419
Q 1631 3141 1786 2991
Q 1941 2841 2228 2841
Q 2509 2841 2662 2991
Q 2816 3141 2816 3419
Q 2816 3697 2662 3845
Q 2509 3994 2228 3994
Q 1941 3994 1786 3844
Q 1631 3694 1631 3419
z
" transform="scale(0.015625)"/>
     </defs>
     <use xlink:href="#DejaVuSans-Bold-1b"/>
    </g>
   </g>
   <g id="text_14">
    <!-- 8 -->
    <g style="fill: #ffffff" transform="translate(407.565522 190.3114) scale(0.09 -0.09)">
     <use xlink:href="#DejaVuSans-Bold-1b"/>
    </g>
   </g>
   <g id="text_15">
    <!-- 1 -->
    <g style="fill: #17212b" transform="translate(103.916743 53.465246) scale(0.09 -0.09)">
     <use xlink:href="#DejaVuSans-Bold-14"/>
    </g>
   </g>
   <g id="text_16">
    <!-- 3 -->
    <g style="fill: #17212b" transform="translate(255.741133 89.957554) scale(0.09 -0.09)">
     <defs>
      <path id="DejaVuSans-Bold-16" d="M 2981 2516
Q 3453 2394 3698 2092
Q 3944 1791 3944 1325
Q 3944 631 3412 270
Q 2881 -91 1863 -91
Q 1503 -91 1142 -33
Q 781 25 428 141
L 428 1069
Q 766 900 1098 814
Q 1431 728 1753 728
Q 2231 728 2486 893
Q 2741 1059 2741 1369
Q 2741 1688 2480 1852
Q 2219 2016 1709 2016
L 1228 2016
L 1228 2791
L 1734 2791
Q 2188 2791 2409 2933
Q 2631 3075 2631 3366
Q 2631 3634 2415 3781
Q 2200 3928 1806 3928
Q 1516 3928 1219 3862
Q 922 3797 628 3669
L 628 4550
Q 984 4650 1334 4700
Q 1684 4750 2022 4750
Q 2931 4750 3382 4451
Q 3834 4153 3834 3553
Q 3834 3144 3618 2883
Q 3403 2622 2981 2516
z
" transform="scale(0.015625)"/>
     </defs>
     <use xlink:href="#DejaVuSans-Bold-16"/>
    </g>
   </g>
   <g id="text_17">
    <!-- 4 -->
    <g style="fill: #17212b" transform="translate(407.565522 80.834477) scale(0.09 -0.09)">
     <defs>
      <path id="DejaVuSans-Bold-17" d="M 2356 3675
L 1038 1722
L 2356 1722
L 2356 3675
z
M 2156 4666
L 3494 4666
L 3494 1722
L 4159 1722
L 4159 850
L 3494 850
L 3494 0
L 2356 0
L 2356 850
L 288 850
L 288 1881
L 2156 4666
z
" transform="scale(0.015625)"/>
     </defs>
     <use xlink:href="#DejaVuSans-Bold-17"/>
    </g>
   </g>
   <g id="text_18">
    <!-- 1 -->
    <g style="fill: #ffffff" transform="translate(255.741133 53.465246) scale(0.09 -0.09)">
     <use xlink:href="#DejaVuSans-Bold-14"/>
    </g>
   </g>
   <g id="text_19">
    <!-- Outcomes across three evolving product and prompt snapshots -->
    <g transform="translate(43.318398 17.758125) scale(0.12 -0.12)">
     <defs>
      <path id="DejaVuSans-Bold-32" d="M 2719 3878
Q 2169 3878 1866 3472
Q 1563 3066 1563 2328
Q 1563 1594 1866 1187
Q 2169 781 2719 781
Q 3272 781 3575 1187
Q 3878 1594 3878 2328
Q 3878 3066 3575 3472
Q 3272 3878 2719 3878
z
M 2719 4750
Q 3844 4750 4481 4106
Q 5119 3463 5119 2328
Q 5119 1197 4481 553
Q 3844 -91 2719 -91
Q 1597 -91 958 553
Q 319 1197 319 2328
Q 319 3463 958 4106
Q 1597 4750 2719 4750
z
" transform="scale(0.015625)"/>
      <path id="DejaVuSans-Bold-58" d="M 500 1363
L 500 3500
L 1625 3500
L 1625 3150
Q 1625 2866 1622 2436
Q 1619 2006 1619 1863
Q 1619 1441 1641 1255
Q 1663 1069 1716 984
Q 1784 875 1895 815
Q 2006 756 2150 756
Q 2500 756 2700 1025
Q 2900 1294 2900 1772
L 2900 3500
L 4019 3500
L 4019 0
L 2900 0
L 2900 506
Q 2647 200 2364 54
Q 2081 -91 1741 -91
Q 1134 -91 817 281
Q 500 653 500 1363
z
" transform="scale(0.015625)"/>
      <path id="DejaVuSans-Bold-57" d="M 1759 4494
L 1759 3500
L 2913 3500
L 2913 2700
L 1759 2700
L 1759 1216
Q 1759 972 1856 886
Q 1953 800 2241 800
L 2816 800
L 2816 0
L 1856 0
Q 1194 0 917 276
Q 641 553 641 1216
L 641 2700
L 84 2700
L 84 3500
L 641 3500
L 641 4494
L 1759 4494
z
" transform="scale(0.015625)"/>
      <path id="DejaVuSans-Bold-46" d="M 3366 3391
L 3366 2478
Q 3138 2634 2908 2709
Q 2678 2784 2431 2784
Q 1963 2784 1702 2511
Q 1441 2238 1441 1747
Q 1441 1256 1702 982
Q 1963 709 2431 709
Q 2694 709 2930 787
Q 3166 866 3366 1019
L 3366 103
Q 3103 6 2833 -42
Q 2563 -91 2291 -91
Q 1344 -91 809 395
Q 275 881 275 1747
Q 275 2613 809 3098
Q 1344 3584 2291 3584
Q 2566 3584 2833 3536
Q 3100 3488 3366 3391
z
" transform="scale(0.015625)"/>
      <path id="DejaVuSans-Bold-52" d="M 2203 2784
Q 1831 2784 1636 2517
Q 1441 2250 1441 1747
Q 1441 1244 1636 976
Q 1831 709 2203 709
Q 2569 709 2762 976
Q 2956 1244 2956 1747
Q 2956 2250 2762 2517
Q 2569 2784 2203 2784
z
M 2203 3584
Q 3106 3584 3614 3096
Q 4122 2609 4122 1747
Q 4122 884 3614 396
Q 3106 -91 2203 -91
Q 1297 -91 786 396
Q 275 884 275 1747
Q 275 2609 786 3096
Q 1297 3584 2203 3584
z
" transform="scale(0.015625)"/>
      <path id="DejaVuSans-Bold-50" d="M 3781 2919
Q 3994 3244 4286 3414
Q 4578 3584 4928 3584
Q 5531 3584 5847 3212
Q 6163 2841 6163 2131
L 6163 0
L 5038 0
L 5038 1825
Q 5041 1866 5042 1909
Q 5044 1953 5044 2034
Q 5044 2406 4934 2573
Q 4825 2741 4581 2741
Q 4263 2741 4089 2478
Q 3916 2216 3909 1719
L 3909 0
L 2784 0
L 2784 1825
Q 2784 2406 2684 2573
Q 2584 2741 2328 2741
Q 2006 2741 1831 2477
Q 1656 2213 1656 1722
L 1656 0
L 531 0
L 531 3500
L 1656 3500
L 1656 2988
Q 1863 3284 2130 3434
Q 2397 3584 2719 3584
Q 3081 3584 3359 3409
Q 3638 3234 3781 2919
z
" transform="scale(0.015625)"/>
      <path id="DejaVuSans-Bold-48" d="M 4031 1759
L 4031 1441
L 1416 1441
Q 1456 1047 1700 850
Q 1944 653 2381 653
Q 2734 653 3104 758
Q 3475 863 3866 1075
L 3866 213
Q 3469 63 3072 -14
Q 2675 -91 2278 -91
Q 1328 -91 801 392
Q 275 875 275 1747
Q 275 2603 792 3093
Q 1309 3584 2216 3584
Q 3041 3584 3536 3087
Q 4031 2591 4031 1759
z
M 2881 2131
Q 2881 2450 2695 2645
Q 2509 2841 2209 2841
Q 1884 2841 1681 2658
Q 1478 2475 1428 2131
L 2881 2131
z
" transform="scale(0.015625)"/>
      <path id="DejaVuSans-Bold-56" d="M 3272 3391
L 3272 2541
Q 2913 2691 2578 2766
Q 2244 2841 1947 2841
Q 1628 2841 1473 2761
Q 1319 2681 1319 2516
Q 1319 2381 1436 2309
Q 1553 2238 1856 2203
L 2053 2175
Q 2913 2066 3209 1816
Q 3506 1566 3506 1031
Q 3506 472 3093 190
Q 2681 -91 1863 -91
Q 1516 -91 1145 -36
Q 775 19 384 128
L 384 978
Q 719 816 1070 734
Q 1422 653 1784 653
Q 2113 653 2278 743
Q 2444 834 2444 1013
Q 2444 1163 2330 1236
Q 2216 1309 1875 1350
L 1678 1375
Q 931 1469 631 1722
Q 331 1975 331 2491
Q 331 3047 712 3315
Q 1094 3584 1881 3584
Q 2191 3584 2531 3537
Q 2872 3491 3272 3391
z
" transform="scale(0.015625)"/>
      <path id="DejaVuSans-Bold-3" transform="scale(0.015625)"/>
      <path id="DejaVuSans-Bold-44" d="M 2106 1575
Q 1756 1575 1579 1456
Q 1403 1338 1403 1106
Q 1403 894 1545 773
Q 1688 653 1941 653
Q 2256 653 2472 879
Q 2688 1106 2688 1447
L 2688 1575
L 2106 1575
z
M 3816 1997
L 3816 0
L 2688 0
L 2688 519
Q 2463 200 2181 54
Q 1900 -91 1497 -91
Q 953 -91 614 226
Q 275 544 275 1050
Q 275 1666 698 1953
Q 1122 2241 2028 2241
L 2688 2241
L 2688 2328
Q 2688 2594 2478 2717
Q 2269 2841 1825 2841
Q 1466 2841 1156 2769
Q 847 2697 581 2553
L 581 3406
Q 941 3494 1303 3539
Q 1666 3584 2028 3584
Q 2975 3584 3395 3211
Q 3816 2838 3816 1997
z
" transform="scale(0.015625)"/>
      <path id="DejaVuSans-Bold-55" d="M 3138 2547
Q 2991 2616 2845 2648
Q 2700 2681 2553 2681
Q 2122 2681 1889 2404
Q 1656 2128 1656 1613
L 1656 0
L 538 0
L 538 3500
L 1656 3500
L 1656 2925
Q 1872 3269 2151 3426
Q 2431 3584 2822 3584
Q 2878 3584 2943 3579
Q 3009 3575 3134 3559
L 3138 2547
z
" transform="scale(0.015625)"/>
      <path id="DejaVuSans-Bold-4b" d="M 4056 2131
L 4056 0
L 2931 0
L 2931 347
L 2931 1625
Q 2931 2084 2911 2256
Q 2891 2428 2841 2509
Q 2775 2619 2662 2680
Q 2550 2741 2406 2741
Q 2056 2741 1856 2470
Q 1656 2200 1656 1722
L 1656 0
L 538 0
L 538 4863
L 1656 4863
L 1656 2988
Q 1909 3294 2193 3439
Q 2478 3584 2822 3584
Q 3428 3584 3742 3212
Q 4056 2841 4056 2131
z
" transform="scale(0.015625)"/>
      <path id="DejaVuSans-Bold-59" d="M 97 3500
L 1216 3500
L 2088 1081
L 2956 3500
L 4078 3500
L 2700 0
L 1472 0
L 97 3500
z
" transform="scale(0.015625)"/>
      <path id="DejaVuSans-Bold-4f" d="M 538 4863
L 1656 4863
L 1656 0
L 538 0
L 538 4863
z
" transform="scale(0.015625)"/>
      <path id="DejaVuSans-Bold-4c" d="M 538 3500
L 1656 3500
L 1656 0
L 538 0
L 538 3500
z
M 538 4863
L 1656 4863
L 1656 3950
L 538 3950
L 538 4863
z
" transform="scale(0.015625)"/>
      <path id="DejaVuSans-Bold-51" d="M 4056 2131
L 4056 0
L 2931 0
L 2931 347
L 2931 1631
Q 2931 2084 2911 2256
Q 2891 2428 2841 2509
Q 2775 2619 2662 2680
Q 2550 2741 2406 2741
Q 2056 2741 1856 2470
Q 1656 2200 1656 1722
L 1656 0
L 538 0
L 538 3500
L 1656 3500
L 1656 2988
Q 1909 3294 2193 3439
Q 2478 3584 2822 3584
Q 3428 3584 3742 3212
Q 4056 2841 4056 2131
z
" transform="scale(0.015625)"/>
      <path id="DejaVuSans-Bold-4a" d="M 2919 594
Q 2688 288 2409 144
Q 2131 0 1766 0
Q 1125 0 706 504
Q 288 1009 288 1791
Q 288 2575 706 3076
Q 1125 3578 1766 3578
Q 2131 3578 2409 3434
Q 2688 3291 2919 2981
L 2919 3500
L 4044 3500
L 4044 353
Q 4044 -491 3511 -936
Q 2978 -1381 1966 -1381
Q 1638 -1381 1331 -1331
Q 1025 -1281 716 -1178
L 716 -306
Q 1009 -475 1290 -558
Q 1572 -641 1856 -641
Q 2406 -641 2662 -400
Q 2919 -159 2919 353
L 2919 594
z
M 2181 2772
Q 1834 2772 1640 2515
Q 1447 2259 1447 1791
Q 1447 1309 1634 1061
Q 1822 813 2181 813
Q 2531 813 2725 1069
Q 2919 1325 2919 1791
Q 2919 2259 2725 2515
Q 2531 2772 2181 2772
z
" transform="scale(0.015625)"/>
      <path id="DejaVuSans-Bold-53" d="M 1656 506
L 1656 -1331
L 538 -1331
L 538 3500
L 1656 3500
L 1656 2988
Q 1888 3294 2169 3439
Q 2450 3584 2816 3584
Q 3463 3584 3878 3070
Q 4294 2556 4294 1747
Q 4294 938 3878 423
Q 3463 -91 2816 -91
Q 2450 -91 2169 54
Q 1888 200 1656 506
z
M 2400 2772
Q 2041 2772 1848 2508
Q 1656 2244 1656 1747
Q 1656 1250 1848 986
Q 2041 722 2400 722
Q 2759 722 2948 984
Q 3138 1247 3138 1747
Q 3138 2247 2948 2509
Q 2759 2772 2400 2772
z
" transform="scale(0.015625)"/>
      <path id="DejaVuSans-Bold-47" d="M 2919 2988
L 2919 4863
L 4044 4863
L 4044 0
L 2919 0
L 2919 506
Q 2688 197 2409 53
Q 2131 -91 1766 -91
Q 1119 -91 703 423
Q 288 938 288 1747
Q 288 2556 703 3070
Q 1119 3584 1766 3584
Q 2128 3584 2408 3439
Q 2688 3294 2919 2988
z
M 2181 722
Q 2541 722 2730 984
Q 2919 1247 2919 1747
Q 2919 2247 2730 2509
Q 2541 2772 2181 2772
Q 1825 2772 1636 2509
Q 1447 2247 1447 1747
Q 1447 1247 1636 984
Q 1825 722 2181 722
z
" transform="scale(0.015625)"/>
     </defs>
     <use xlink:href="#DejaVuSans-Bold-32"/>
     <use xlink:href="#DejaVuSans-Bold-58" transform="translate(85.015625 0)"/>
     <use xlink:href="#DejaVuSans-Bold-57" transform="translate(156.203125 0)"/>
     <use xlink:href="#DejaVuSans-Bold-46" transform="translate(204 0)"/>
     <use xlink:href="#DejaVuSans-Bold-52" transform="translate(263.28125 0)"/>
     <use xlink:href="#DejaVuSans-Bold-50" transform="translate(331.984375 0)"/>
     <use xlink:href="#DejaVuSans-Bold-48" transform="translate(436.1875 0)"/>
     <use xlink:href="#DejaVuSans-Bold-56" transform="translate(504.015625 0)"/>
     <use xlink:href="#DejaVuSans-Bold-3" transform="translate(563.53125 0)"/>
     <use xlink:href="#DejaVuSans-Bold-44" transform="translate(598.34375 0)"/>
     <use xlink:href="#DejaVuSans-Bold-46" transform="translate(665.828125 0)"/>
     <use xlink:href="#DejaVuSans-Bold-55" transform="translate(725.109375 0)"/>
     <use xlink:href="#DejaVuSans-Bold-52" transform="translate(774.421875 0)"/>
     <use xlink:href="#DejaVuSans-Bold-56" transform="translate(843.125 0)"/>
     <use xlink:href="#DejaVuSans-Bold-56" transform="translate(902.640625 0)"/>
     <use xlink:href="#DejaVuSans-Bold-3" transform="translate(962.15625 0)"/>
     <use xlink:href="#DejaVuSans-Bold-57" transform="translate(996.96875 0)"/>
     <use xlink:href="#DejaVuSans-Bold-4b" transform="translate(1044.765625 0)"/>
     <use xlink:href="#DejaVuSans-Bold-55" transform="translate(1115.953125 0)"/>
     <use xlink:href="#DejaVuSans-Bold-48" transform="translate(1165.265625 0)"/>
     <use xlink:href="#DejaVuSans-Bold-48" transform="translate(1233.09375 0)"/>
     <use xlink:href="#DejaVuSans-Bold-3" transform="translate(1300.921875 0)"/>
     <use xlink:href="#DejaVuSans-Bold-48" transform="translate(1335.734375 0)"/>
     <use xlink:href="#DejaVuSans-Bold-59" transform="translate(1403.5625 0)"/>
     <use xlink:href="#DejaVuSans-Bold-52" transform="translate(1468.75 0)"/>
     <use xlink:href="#DejaVuSans-Bold-4f" transform="translate(1537.453125 0)"/>
     <use xlink:href="#DejaVuSans-Bold-59" transform="translate(1571.734375 0)"/>
     <use xlink:href="#DejaVuSans-Bold-4c" transform="translate(1636.921875 0)"/>
     <use xlink:href="#DejaVuSans-Bold-51" transform="translate(1671.203125 0)"/>
     <use xlink:href="#DejaVuSans-Bold-4a" transform="translate(1742.390625 0)"/>
     <use xlink:href="#DejaVuSans-Bold-3" transform="translate(1813.96875 0)"/>
     <use xlink:href="#DejaVuSans-Bold-53" transform="translate(1848.78125 0)"/>
     <use xlink:href="#DejaVuSans-Bold-55" transform="translate(1920.359375 0)"/>
     <use xlink:href="#DejaVuSans-Bold-52" transform="translate(1969.671875 0)"/>
     <use xlink:href="#DejaVuSans-Bold-47" transform="translate(2038.375 0)"/>
     <use xlink:href="#DejaVuSans-Bold-58" transform="translate(2109.953125 0)"/>
     <use xlink:href="#DejaVuSans-Bold-46" transform="translate(2181.140625 0)"/>
     <use xlink:href="#DejaVuSans-Bold-57" transform="translate(2240.421875 0)"/>
     <use xlink:href="#DejaVuSans-Bold-3" transform="translate(2288.21875 0)"/>
     <use xlink:href="#DejaVuSans-Bold-44" transform="translate(2323.03125 0)"/>
     <use xlink:href="#DejaVuSans-Bold-51" transform="translate(2390.515625 0)"/>
     <use xlink:href="#DejaVuSans-Bold-47" transform="translate(2461.703125 0)"/>
     <use xlink:href="#DejaVuSans-Bold-3" transform="translate(2533.28125 0)"/>
     <use xlink:href="#DejaVuSans-Bold-53" transform="translate(2568.09375 0)"/>
     <use xlink:href="#DejaVuSans-Bold-55" transform="translate(2639.671875 0)"/>
     <use xlink:href="#DejaVuSans-Bold-52" transform="translate(2688.984375 0)"/>
     <use xlink:href="#DejaVuSans-Bold-50" transform="translate(2757.6875 0)"/>
     <use xlink:href="#DejaVuSans-Bold-53" transform="translate(2861.890625 0)"/>
     <use xlink:href="#DejaVuSans-Bold-57" transform="translate(2933.46875 0)"/>
     <use xlink:href="#DejaVuSans-Bold-3" transform="translate(2981.265625 0)"/>
     <use xlink:href="#DejaVuSans-Bold-56" transform="translate(3016.078125 0)"/>
     <use xlink:href="#DejaVuSans-Bold-51" transform="translate(3075.59375 0)"/>
     <use xlink:href="#DejaVuSans-Bold-44" transform="translate(3146.78125 0)"/>
     <use xlink:href="#DejaVuSans-Bold-53" transform="translate(3214.265625 0)"/>
     <use xlink:href="#DejaVuSans-Bold-56" transform="translate(3285.84375 0)"/>
     <use xlink:href="#DejaVuSans-Bold-4b" transform="translate(3345.359375 0)"/>
     <use xlink:href="#DejaVuSans-Bold-52" transform="translate(3416.546875 0)"/>
     <use xlink:href="#DejaVuSans-Bold-57" transform="translate(3485.25 0)"/>
     <use xlink:href="#DejaVuSans-Bold-56" transform="translate(3533.046875 0)"/>
    </g>
   </g>
   <g id="legend_1">
    <g id="patch_14">
     <path d="M 170.723477 38.696719
L 188.723477 38.696719
L 188.723477 32.396719
L 170.723477 32.396719
z
" style="fill: #00796b; stroke: #263238; stroke-width: 0.55; stroke-linejoin: miter"/>
    </g>
    <g id="text_20">
     <!-- Pass -->
     <g transform="translate(195.923477 38.696719) scale(0.09 -0.09)">
      <defs>
       <path id="DejaVuSans-33" d="M 1259 4147
L 1259 2394
L 2053 2394
Q 2494 2394 2734 2622
Q 2975 2850 2975 3272
Q 2975 3691 2734 3919
Q 2494 4147 2053 4147
L 1259 4147
z
M 628 4666
L 2053 4666
Q 2838 4666 3239 4311
Q 3641 3956 3641 3272
Q 3641 2581 3239 2228
Q 2838 1875 2053 1875
L 1259 1875
L 1259 0
L 628 0
L 628 4666
z
" transform="scale(0.015625)"/>
      </defs>
      <use xlink:href="#DejaVuSans-33"/>
      <use xlink:href="#DejaVuSans-44" transform="translate(55.8125 0)"/>
      <use xlink:href="#DejaVuSans-56" transform="translate(117.09375 0)"/>
      <use xlink:href="#DejaVuSans-56" transform="translate(169.1875 0)"/>
     </g>
    </g>
    <g id="patch_15">
     <path d="M 233.838789 38.696719
L 251.838789 38.696719
L 251.838789 32.396719
L 233.838789 32.396719
z
" style="fill: url(#h42d7399d3a); stroke: #263238; stroke-width: 0.55; stroke-linejoin: miter"/>
    </g>
    <g id="text_21">
     <!-- Invalid -->
     <g transform="translate(259.038789 38.696719) scale(0.09 -0.09)">
      <defs>
       <path id="DejaVuSans-2c" d="M 628 4666
L 1259 4666
L 1259 0
L 628 0
L 628 4666
z
" transform="scale(0.015625)"/>
      </defs>
      <use xlink:href="#DejaVuSans-2c"/>
      <use xlink:href="#DejaVuSans-51" transform="translate(29.5 0)"/>
      <use xlink:href="#DejaVuSans-59" transform="translate(92.875 0)"/>
      <use xlink:href="#DejaVuSans-44" transform="translate(152.0625 0)"/>
      <use xlink:href="#DejaVuSans-4f" transform="translate(213.34375 0)"/>
      <use xlink:href="#DejaVuSans-4c" transform="translate(241.125 0)"/>
      <use xlink:href="#DejaVuSans-47" transform="translate(268.90625 0)"/>
     </g>
    </g>
    <g id="patch_16">
     <path d="M 306.953945 38.696719
L 324.953945 38.696719
L 324.953945 32.396719
L 306.953945 32.396719
z
" style="fill: url(#h7342ca18d5); stroke: #263238; stroke-width: 0.55; stroke-linejoin: miter"/>
    </g>
    <g id="text_22">
     <!-- Fail -->
     <g transform="translate(332.153945 38.696719) scale(0.09 -0.09)">
      <defs>
       <path id="DejaVuSans-29" d="M 628 4666
L 3309 4666
L 3309 4134
L 1259 4134
L 1259 2759
L 3109 2759
L 3109 2228
L 1259 2228
L 1259 0
L 628 0
L 628 4666
z
" transform="scale(0.015625)"/>
      </defs>
      <use xlink:href="#DejaVuSans-29"/>
      <use xlink:href="#DejaVuSans-44" transform="translate(48.34375 0)"/>
      <use xlink:href="#DejaVuSans-4c" transform="translate(109.625 0)"/>
      <use xlink:href="#DejaVuSans-4f" transform="translate(137.40625 0)"/>
     </g>
    </g>
   </g>
  </g>
 </g>
 <defs>
  <clipPath id="p75879298b4">
   <rect x="40.093203" y="23.758125" width="437.557891" height="237.2"/>
  </clipPath>
 </defs>
 <defs>
  <pattern id="h42d7399d3a" patternUnits="userSpaceOnUse" x="0" y="0" width="72" height="72">
   <rect x="0" y="0" width="73" height="73" fill="#e07a1f"/>
   <path d="M -36 36
L 36 -36
M -32 40
L 40 -32
M -28 44
L 44 -28
M -24 48
L 48 -24
M -20 52
L 52 -20
M -16 56
L 56 -16
M -12 60
L 60 -12
M -8 64
L 64 -8
M -4 68
L 68 -4
M 0 72
L 72 0
M 4 76
L 76 4
M 8 80
L 80 8
M 12 84
L 84 12
M 16 88
L 88 16
M 20 92
L 92 20
M 24 96
L 96 24
M 28 100
L 100 28
M 32 104
L 104 32
M 36 108
L 108 36
" style="fill: #263238; stroke: #263238; stroke-width: 1.0; stroke-linecap: butt; stroke-linejoin: miter"/>
  </pattern>
  <pattern id="h7342ca18d5" patternUnits="userSpaceOnUse" x="0" y="0" width="72" height="72">
   <rect x="0" y="0" width="73" height="73" fill="#9e2a2b"/>
   <path d="M -36 36
L 36 -36
M -30 42
L 42 -30
M -24 48
L 48 -24
M -18 54
L 54 -18
M -12 60
L 60 -12
M -6 66
L 66 -6
M 0 72
L 72 0
M 6 78
L 78 6
M 12 84
L 84 12
M 18 90
L 90 18
M 24 96
L 96 24
M 30 102
L 102 30
M 36 108
L 108 36
M -36 36
L 36 108
M -30 30
L 42 102
M -24 24
L 48 96
M -18 18
L 54 90
M -12 12
L 60 84
M -6 6
L 66 78
M 0 0
L 72 72
M 6 -6
L 78 66
M 12 -12
L 84 60
M 18 -18
L 90 54
M 24 -24
L 96 48
M 30 -30
L 102 42
M 36 -36
L 108 36
" style="fill: #263238; stroke: #263238; stroke-width: 1.0; stroke-linecap: butt; stroke-linejoin: miter"/>
  </pattern>
 </defs>
</svg>
